<?xml version="1.0" encoding="utf-8"?>
<!-- Generator: Adobe Illustrator 26.0.2, SVG Export Plug-In . SVG Version: 6.00 Build 0)  -->
<svg version="1.1" id="Layer_1" xmlns="http://www.w3.org/2000/svg" xmlns:xlink="http://www.w3.org/1999/xlink" x="0px" y="0px"
	 viewBox="0 0 290.9 290.9" style="enable-background:new 0 0 290.9 290.9;" xml:space="preserve">
<style type="text/css">
	.st0{display:none;}
	.st1{display:inline;fill:#FFFFFF;}
	.st2{fill:#FFFFFF;}
</style>
<g class="st0">
	<path class="st1" d="M96.95,89.66c5.52-0.34,10.56,1.48,15.53,3.81c2.94,1.38,6.04,2.43,9.08,3.61c3.37,1.31,6.74,2.62,10.11,3.92
		c4.06,1.56,8.13,3.09,12.19,4.67c3.79,1.47,7.57,3,11.36,4.48c2.69,1.05,5.4,2.03,8.09,3.08c2.95,1.14,5.88,2.32,8.82,3.48
		c4.01,1.58,8.01,3.17,12.02,4.74c4.18,1.64,8.35,3.29,12.54,4.9c4.7,1.81,9.43,3.55,14.12,5.37c3.84,1.49,7.65,3.06,11.46,4.62
		c4.92,2.01,9.88,3.92,14.72,6.1c4.97,2.23,9.81,4.75,14.73,7.09c5.82,2.77,10.54,7.13,15.73,10.82c4.11,2.93,8.15,5.96,12.22,8.95
		c0.33,0.24,0.75,0.47,0.92,0.81c0.38,0.72,0.62,1.51,0.92,2.28c-0.81,0.31-1.69,0.97-2.43,0.86c-2.07-0.33-4.1-0.95-6.13-1.52
		c-2.42-0.68-4.82-1.47-7.25-2.13c-3.14-0.85-6.3-1.65-9.46-2.42c-2.72-0.67-5.45-1.26-8.17-1.92c-3.88-0.93-7.75-1.9-11.63-2.84
		c-4.28-1.03-8.57-2.03-12.85-3.06c-2.58-0.62-5.16-1.29-7.74-1.92c-3.96-0.98-7.92-1.94-11.88-2.92
		c-4.27-1.06-8.53-2.14-12.81-3.18c-2.85-0.7-5.72-1.32-8.56-2.01c-2.72-0.66-5.42-1.39-8.14-2.07c-2.89-0.72-5.79-1.41-8.69-2.09
		c-3.21-0.76-6.43-1.49-9.65-2.23c-2.91-0.66-5.83-1.27-8.73-1.95c-4.29-1.01-8.56-2.09-12.85-3.09c-2.91-0.68-5.81-1.38-8.75-1.86
		c-5.26-0.85-10.54-1.58-15.82-2.27c-2.05-0.27-4.13-0.36-6.2-0.37c-4.33-0.04-8.66-0.08-12.98,0.08
		c-5.1,0.19-10.12,1.03-15.09,2.25c-3.25,0.8-6.57,1.3-9.85,1.99c-4.58,0.96-9.15,1.99-13.74,2.95c-3.32,0.7-6.66,1.34-9.99,2.03
		c-3.37,0.7-6.73,1.46-10.1,2.14c-3.6,0.73-7.21,1.38-10.8,2.12c-3.01,0.62-6,1.32-9,1.96c-0.94,0.2-1.9,0.32-2.85,0.46
		c-2.44,0.36-3.59-2.4-2.49-4.15c0.88-1.4,1.83-2.75,2.75-4.12c2.38-3.54,4.72-7.11,7.14-10.63c2.28-3.32,5.62-5.35,9.09-7.2
		c3.89-2.06,7.77-4.13,11.66-6.19c5.18-2.74,10.37-5.46,15.54-8.22c2.51-1.34,4.97-2.77,7.48-4.09c3.36-1.77,6.77-3.44,10.12-5.23
		c3.96-2.12,7.83-4.4,11.81-6.47C86.93,90.71,91.73,89.41,96.95,89.66z"/>
	<path class="st1" d="M163.36,107.47c-1.7-0.57-3.97-1.27-6.19-2.09c-3.44-1.27-6.86-2.6-10.28-3.92c-2.95-1.14-5.88-2.31-8.83-3.46
		c-3.32-1.3-6.65-2.59-9.97-3.9c-4.08-1.62-8.16-3.26-12.24-4.88c-2.22-0.88-4.44-1.72-6.66-2.6c-0.46-0.18-0.92-0.43-1.33-0.71
		c-1.61-1.1-1.75-2.52-0.15-3.66c1.44-1.02,3.04-1.89,4.68-2.55c6.2-2.51,12.43-4.93,18.68-7.33c4.06-1.56,8.17-3.01,12.25-4.53
		c3.42-1.28,6.82-2.63,10.25-3.89c2.62-0.97,5.26-1.85,7.9-2.77c2.77-0.96,5.53-1.93,8.3-2.88c3.85-1.32,7.71-2.62,11.57-3.92
		c4.61-1.55,9.21-3.12,13.83-4.62c3.05-0.99,6.12-1.9,9.19-2.82c3.6-1.08,7.19-2.19,10.8-3.21c3.4-0.96,6.83-1.82,10.24-2.73
		c1.68-0.45,3.35-0.95,5.04-1.36c0.7-0.17,1.46-0.27,2.18-0.22c1.62,0.11,2.58,1.69,1.74,3.08c-0.89,1.47-1.9,2.93-3.12,4.14
		c-4.64,4.59-9.4,9.05-14.08,13.59c-7.65,7.41-15.27,14.85-22.9,22.28c-4.74,4.62-9.45,9.26-14.21,13.85
		c-2.77,2.68-5.55,5.35-8.43,7.91C169.47,106.17,166.86,107.13,163.36,107.47z"/>
	<path class="st1" d="M125.95,177.5c4.14,0,8.28,0.03,12.43-0.02c1.25-0.01,1.77,0.46,1.74,1.69c-0.04,1.61,0.02,3.22-0.03,4.83
		c-0.03,0.89,0.37,1.28,1.21,1.28c2.35,0,4.69,0.03,7.04-0.02c0.42-0.01,0.91-0.23,1.24-0.51c2.39-2.01,4.77-4.02,7.09-6.11
		c0.88-0.79,1.77-1.16,2.96-1.16c8.93,0.04,17.86,0.03,26.78,0.02c4.36-0.01,3.54-0.27,3.75,3.79c0.16,3.1-0.31,5.67-2.95,7.78
		c-2.06,1.65-3.68,3.84-5.53,5.75c-0.32,0.33-0.86,0.59-1.31,0.6c-1.84,0.08-3.68,0.04-5.52,0.06c-1.03,0.01-1.49-0.43-1.46-1.5
		c0.05-1.84-0.04-3.68,0.01-5.52c0.03-1.16-0.37-1.66-1.59-1.65c-3.27,0.04-6.53-0.07-9.8,0.02c-0.78,0.02-1.67,0.45-2.28,0.96
		c-2.69,2.22-5.26,4.59-7.96,6.8c-0.61,0.5-1.55,0.85-2.35,0.86c-6.03,0.07-12.06,0.01-18.09,0.05c-1.25,0.01-1.74-0.37-1.69-1.66
		c0.08-1.84-0.02-3.68,0.03-5.52c0.02-1.03-0.31-1.52-1.42-1.51c-3.73,0.04-7.46-0.03-11.18,0.05c-0.76,0.02-1.64,0.37-2.24,0.85
		c-2.83,2.26-5.57,4.64-8.39,6.92c-0.53,0.43-1.27,0.73-1.95,0.79c-1.32,0.12-2.67,0.01-4,0.03c-1.08,0.02-1.61-0.42-1.57-1.56
		c0.05-1.47-0.15-2.97,0.06-4.41c0.13-0.91,0.57-2,1.25-2.57c3.32-2.82,6.8-5.48,10.16-8.25c1.06-0.88,2.19-1.21,3.54-1.2
		C117.94,177.52,121.94,177.49,125.95,177.5C125.95,177.5,125.95,177.5,125.95,177.5z"/>
	<path class="st1" d="M218.36,186.97c16.04,0,31.86,0,48.07,0c-0.47,0.76-0.63,1.15-0.89,1.42c-2.06,2.15-4.12,4.31-6.25,6.39
		c-0.4,0.4-1.13,0.66-1.7,0.66c-17.36,0.03-34.72,0.02-52.07,0.03c-1.2,0-1.77-0.4-1.73-1.69c0.07-2.16-0.07-4.33,0.05-6.49
		c0.03-0.63,0.49-1.39,0.98-1.82c2.92-2.52,5.89-4.99,8.9-7.4c0.49-0.39,1.28-0.56,1.93-0.56c19.48-0.04,38.95-0.04,58.43-0.04
		c0.37,0,0.75-0.01,1.1,0.09c0.63,0.19,0.84,0.6,0.31,1.11c-1.97,1.93-3.89,3.92-5.96,5.72c-0.61,0.53-1.69,0.71-2.56,0.71
		c-15.15,0.05-30.3,0.05-45.44,0.04C220.26,185.15,219.14,185.29,218.36,186.97z"/>
	<path class="st1" d="M86.44,178.27c-1.53,0.97-3.05,1.96-4.58,2.92c-1.79,1.12-3.57,2.25-5.38,3.35c-0.98,0.6-1.06,1.05-0.06,1.8
		c3.1,2.3,6.13,4.68,9.17,7.05c0.29,0.23,0.47,0.6,0.7,0.91c-0.39,0.18-0.78,0.52-1.17,0.52c-4.51,0.03-9.02-0.01-13.54,0.02
		c-1.92,0.01-3.17-1.35-4.7-2.13c-1.55-0.79-2.93-1.89-4.48-2.69c-0.82-0.42-1.83-0.68-2.76-0.69c-8.98-0.05-17.96-0.05-26.94,0.01
		c-0.77,0.01-1.67,0.45-2.28,0.97c-1.71,1.46-3.28,3.08-4.95,4.58c-0.34,0.31-0.89,0.53-1.36,0.54c-2.44,0.06-4.88,0.02-7.32,0.04
		c-0.82,0.01-1.16-0.38-1.16-1.18c0.01-2.44-0.05-4.88,0.05-7.32c0.02-0.55,0.44-1.24,0.88-1.6c3.01-2.48,6.06-4.92,9.15-7.31
		c0.46-0.36,1.18-0.52,1.79-0.53c3.59-0.05,7.18-0.01,10.77-0.04c1.29-0.01,1.77,0.48,1.77,1.81c0.01,2.92-0.43,2.9,2.94,2.89
		c5.85-0.03,11.69,0.02,17.54,0.05c2.17,0.01,3.74-1.41,5.53-2.28c1.32-0.64,2.54-1.47,3.86-2.11c0.56-0.27,1.24-0.38,1.87-0.39
		c4.33-0.01,8.66,0.02,12.98,0.06c0.53,0.01,1.06,0.17,1.59,0.27C86.4,177.96,86.42,178.12,86.44,178.27z"/>
</g>
<g class="st0">
	<path class="st1" d="M222.93,193.54c-0.89-0.89-1.77-1.79-2.66-2.67c-4.28-4.26-8.53-8.54-12.84-12.76
		c-3.14-3.08-2.98-8.74,0.59-11.2c0.91-0.62,2.04-1.21,3.1-1.26c3.35-0.17,6.71-0.1,10.07-0.09c1.72,0,3.09,0.84,4.26,2.02
		c3.3,3.3,6.58,6.61,9.86,9.93c1.3,1.31,1.35,1.31,2.68-0.04c3.22-3.26,6.48-6.48,9.68-9.76c1.42-1.46,3.07-2.21,5.1-2.21
		c2.81,0,5.62-0.07,8.42-0.01c5.32,0.11,8.06,4.48,6.68,9.59c-0.29,1.08-1.12,2.1-1.93,2.92c-6.04,6.1-12.12,12.16-18.22,18.19
		c-0.75,0.74-1.11,1.49-1.08,2.56c0.08,2.55-0.07,5.11,0.07,7.65c0.23,4.38-2.23,7.37-6.68,7.92c-2.22,0.27-4.51,0.27-6.74,0.08
		c-1.34-0.12-2.62-0.88-3.94-1.27c-0.5-0.15-1.19-0.27-1.58-0.04c-1.76,1.03-3.62,1.33-5.62,1.32c-9.15-0.03-18.29,0.03-27.44-0.04
		c-2.58-0.02-5.21-0.1-7.72-0.63c-1.71-0.36-3.31-1.44-4.83-2.41c-0.8-0.51-1.16-0.44-1.64,0.24c-1.35,1.94-3.32,2.8-5.57,2.8
		c-12.12,0.05-24.25,0.09-36.37-0.02c-3.6-0.03-7.24-0.37-10.14-3c-0.55-0.5-0.96-0.43-1.44,0.22c-1.44,1.94-3.46,2.82-5.85,2.82
		c-11.87,0.01-23.74,0.04-35.61-0.02c-4.03-0.02-7.98-0.54-11.19-3.4c-0.47-0.42-0.9-0.43-1.36,0.2c-1.73,2.42-4.2,3.23-7.1,3.23
		c-12.93-0.03-25.86-0.05-38.8,0.01c-4.55,0.02-10.66-3.64-11.86-9.1c-0.2-0.91-0.32-1.85-0.34-2.78
		c-0.14-6.97-0.27-13.94-0.32-20.9c-0.01-1.82,0.32-3.63,0.45-5.45c0.3-4.07,2.41-6.89,5.81-9c2.08-1.29,4.24-1.74,6.64-1.73
		c12.85,0.04,25.69,0.03,38.54,0.02c2.03,0,3.97,0.17,5.64,1.53c0.27,0.22,1.06,0.19,1.36-0.05c1.45-1.17,3.11-1.47,4.88-1.47
		c14.51,0,29.01-0.02,43.52,0.04c1.26,0.01,2.51,0.62,3.78,0.85c0.69,0.13,1.44,0.14,2.13,0.02c1.32-0.23,2.61-0.86,3.91-0.86
		c14.46-0.07,28.93-0.05,43.39-0.05c1.64,0,3.19,0.29,4.6,1.24c0.3,0.2,0.89,0.11,1.3-0.01c1.16-0.34,2.28-1.04,3.45-1.11
		c2.62-0.17,5.27-0.06,7.9-0.04c3.18,0.02,6.23,3.64,6.13,6.77c-0.2,6.67-0.08,13.36-0.09,20.03c0,1.7,0.03,1.73,1.69,1.73
		c7.15,0.01,14.29,0.02,21.44,0.02c0.57,0,1.14-0.09,1.71-0.14C222.84,193.83,222.89,193.69,222.93,193.54z M46.45,172.52
		c-5.83,0-11.65,0-17.48,0c-0.85,0-1.72-0.07-2.54,0.08c-2.09,0.4-4.48,1.92-4.44,4.46c0.04,2.2-0.25,4.41-0.27,6.61
		c-0.05,5.02-0.04,10.04,0,15.05c0.01,1.56,0.06,3.17,0.42,4.68c0.22,0.95,0.92,1.89,1.64,2.59c1.08,1.05,2.53,1.26,4.03,1.26
		c12.5-0.02,25.01-0.01,37.51-0.01c1.66,0,1.77-0.12,1.78-1.85c0-5.57,0-11.14,0-16.71c0-1.66-0.05-1.71-1.74-1.71
		c-8.33,0.04-16.67,0.08-25,0.12c-3.07,0.01-3.07,0-3.06,3.13c0,2.6,0,2.57,2.53,2.6c6.46,0.07,12.92,0.18,19.38,0.23
		c1.11,0.01,1.65,0.34,1.57,1.56c-0.09,1.44-0.02,2.89-0.02,4.34c0,2.12-0.11,2.24-2.23,2.24c-7.48,0-14.97,0-22.45,0
		c-2.21,0-4.42-0.02-6.63,0c-0.83,0.01-1.28-0.29-1.28-1.18c0.02-6.42-0.01-12.84,0.07-19.26c0.02-2.12,0.16-2.13,2.35-2.15
		c11.6-0.08,23.2-0.17,34.81-0.26c0.13,0,0.26-0.01,0.38,0c0.8,0.07,1.2-0.33,1.24-1.1c0.05-0.98,0.08-1.95,0.09-2.93
		c0.01-1.79-0.01-1.81-1.76-1.81C59.04,172.52,52.74,172.52,46.45,172.52z M152.94,172.52c-6.81,0-13.61,0-20.42,0
		c-1.74,0-1.78,0.03-1.76,1.8c0.03,3.27,0.09,6.55,0.12,9.82c0.05,5.91,0.06,11.82,0.15,17.73c0.03,1.82,0.72,3.32,2.35,4.38
		c1.54,1,3.25,0.96,4.91,0.97c11.65,0.06,23.31,0.03,34.96,0.03c0.26,0,0.58,0.09,0.75-0.03c0.41-0.31,1.01-0.67,1.08-1.09
		c0.16-1,0.06-2.03,0.06-3.05c-0.01-1.78-0.1-1.88-1.88-1.88c-11.06,0-22.12,0-33.17,0c-0.47,0-0.94,0-1.4-0.01
		c-0.92-0.01-1.5-0.52-1.51-1.39c-0.03-1.78,0.07-3.56,0.12-5.34c0.03-1.1,0.65-1.39,1.67-1.4c7.57-0.05,15.13-0.16,22.7-0.23
		c3.27-0.03,6.55,0,9.82-0.01c2.21,0,2.47-0.24,2.64-2.43c0.02-0.25,0.01-0.51,0.02-0.77c0.02-2.65,0.02-2.65-2.62-2.65
		c-10.85,0-21.69,0-32.54,0c-1.62,0-1.95-0.32-1.86-1.66c0.11-1.56,0.2-3.13,0.24-4.7c0.04-1.95,0.07-2,2.02-2.01
		c11.31-0.08,22.61-0.17,33.92-0.26c0.17,0,0.34-0.01,0.51,0c0.78,0.04,1.19-0.3,1.21-1.11c0.02-1.02,0.12-2.04,0.12-3.06
		c0.01-1.59-0.07-1.66-1.65-1.66C166.63,172.51,159.78,172.52,152.94,172.52z M99.66,172.52c-6.89,0-13.78,0-20.67-0.01
		c-0.84,0-1.52,0.06-1.51,1.19c0.06,9.65,0.08,19.3,0.17,28.95c0.02,2.23,1.76,4.04,3.96,4.29c1.43,0.17,2.87,0.29,4.31,0.29
		c9.7,0.03,19.39,0.01,29.09,0.01c1.7,0,3.4-0.02,5.1,0c1.05,0.01,1.59-0.42,1.52-1.53c-0.05-0.72-0.01-1.45-0.01-2.17
		c0-2.1,0-2.09-2.14-2.11c-11.18-0.08-22.36-0.16-33.53-0.25c-0.21,0-0.43-0.01-0.64-0.01c-0.96-0.01-1.52-0.39-1.49-1.45
		c0.04-1.7,0.07-3.4-0.01-5.09c-0.06-1.18,0.42-1.57,1.55-1.58c6.03-0.05,12.07-0.18,18.1-0.23c5.1-0.04,10.21-0.03,15.31,0.01
		c1.15,0.01,1.64-0.42,1.59-1.57c-0.05-0.98-0.05-1.96,0-2.93c0.05-0.96-0.38-1.25-1.29-1.25c-3.06,0-6.12-0.1-9.18-0.1
		c-8.21-0.02-16.42-0.02-24.62,0.01c-1.16,0.01-1.61-0.34-1.52-1.54c0.11-1.52,0.08-3.06,0.09-4.59c0.01-2.26,0-2.24,2.25-2.26
		c11.22-0.08,22.44-0.17,33.67-0.26c0.21,0,0.43-0.01,0.64-0.02c0.81-0.04,1.24-0.43,1.24-1.28c0.01-0.89,0.11-1.78,0.11-2.67
		c0.02-1.85,0.01-1.86-1.8-1.86C113.18,172.52,106.42,172.52,99.66,172.52z M212.54,172.71c-0.11,0.2-0.23,0.4-0.34,0.6
		c0.43,0.27,0.93,0.48,1.28,0.83c6.19,6.16,12.35,12.35,18.56,18.5c0.86,0.85,1.2,1.76,1.18,2.94c-0.05,2.89-0.02,5.78-0.01,8.67
		c0,0.64,0.05,1.27,0.11,1.9c0.1,0.94,0.56,1.47,1.6,1.36c1.09-0.12,2.2-0.26,3.29-0.23c1.22,0.03,1.51-0.53,1.5-1.63
		c-0.04-3.36,0.01-6.72-0.03-10.08c-0.01-0.93,0.26-1.61,0.91-2.25c5.18-5.14,10.33-10.31,15.5-15.45c1.61-1.6,3.28-3.14,4.92-4.7
		c-0.07-0.14-0.15-0.29-0.22-0.43c-0.47-0.08-0.94-0.21-1.41-0.22c-1.7-0.03-3.4,0.04-5.1-0.03c-1.02-0.04-1.76,0.33-2.47,1.04
		c-4.58,4.62-9.18,9.21-13.78,13.8c-1.37,1.37-1.42,1.37-2.82-0.03c-4.54-4.54-9.09-9.05-13.6-13.63c-0.85-0.86-1.72-1.25-2.92-1.19
		c-1.57,0.08-3.15,0.01-4.72,0.03C213.5,172.53,213.02,172.65,212.54,172.71z M206.72,207.25c5.14,0,10.29-0.02,15.43,0.02
		c1.15,0.01,1.65-0.38,1.57-1.55c-0.06-0.85-0.01-1.7-0.01-2.55c0-1.97-0.01-1.97-2.01-1.97c-0.34,0-0.68,0-1.02,0
		c-9.14,0-18.28,0-27.42,0c-2.27,0-2.27,0-2.27-2.34c0-0.98,0-1.96,0-2.93c0-7.27-0.02-14.54,0.02-21.8
		c0.01-1.18-0.29-1.73-1.56-1.63c-1.05,0.09-2.12,0.01-3.19,0.02c-1.59,0.01-1.72,0.14-1.72,1.78c0,6.67-0.03,13.35,0.01,20.02
		c0.02,2.71,0.17,5.43,0.26,8.14c0.05,1.67,0.77,3.09,2.25,3.72c1.43,0.61,3.07,0.99,4.62,1.03
		C196.69,207.33,201.7,207.25,206.72,207.25z"/>
	<path class="st1" d="M268.05,90.26c-0.15-1.59-0.24-3.23-0.71-4.74c-1.9-6.12-6.25-9.76-12.37-10.97
		c-4.35-0.86-8.83-1.18-13.27-1.42c-7.34-0.4-14.68-0.57-22.03-0.79c-3.7-0.11-7.4-0.14-11.09-0.19c-6.84-0.1-13.68-0.18-20.53-0.28
		c-7.65-0.1-15.3-0.26-22.94-0.29c-12.37-0.05-24.75-0.05-37.12,0c-6.03,0.02-12.06,0.2-18.1,0.29c-6.46,0.09-12.92,0.15-19.38,0.21
		c-8.97,0.09-17.94,0.15-26.91,0.26c-2.84,0.04-5.68,0.19-8.52,0.32c-6.66,0.3-13.31,0.63-19.97,0.94
		c-4.84,0.22-9.54,0.89-13.62,3.83c-3.12,2.25-5.39,5.22-6.16,8.91c-0.65,3.13-0.57,6.41-0.73,9.62c-0.05,1.01,0.19,2.02,0.25,3.03
		c0.11,1.78,0.18,3.56,0.28,5.34c0.09,1.56,0.12,3.14,0.34,4.69c0.28,1.88,0.62,3.77,1.12,5.6c0.75,2.69,1.39,5.46,2.56,7.96
		c3.51,7.51,9.77,12.09,17.21,15.23c2.22,0.94,4.5,1.74,6.78,2.5c2.25,0.75,4.52,1.41,6.81,2.02c2.5,0.66,5.02,1.23,7.54,1.81
		c2.93,0.67,5.87,1.34,8.82,1.94c3.03,0.62,6.07,1.19,9.11,1.71c4.3,0.74,8.6,1.42,12.9,2.13c0.29,0.05,0.59,0.08,0.88,0.15
		c1.59,0.4,3.16,0.93,4.78,1.19c4.14,0.67,8.3,1.22,12.45,1.82c6.43,0.93,12.83,2.01,19.28,2.75c4.8,0.55,9.65,0.69,15.04,1.04
		c3.78-0.21,8.1-0.44,12.42-0.69c1.78-0.1,3.57-0.18,5.34-0.41c4.49-0.61,8.97-1.31,13.46-1.96c4.16-0.6,8.32-1.17,12.47-1.77
		c1.55-0.22,3.1-0.47,4.64-0.8c2.55-0.54,5.03-1.5,7.71-1.34c0.46,0.03,0.93-0.09,1.39-0.18c3.32-0.67,6.64-1.36,9.96-2.01
		c3.08-0.6,6.18-1.06,9.24-1.74c5-1.11,9.96-2.41,14.96-3.53c4.89-1.09,9.65-2.58,14.24-4.57c8.61-3.73,15.45-9.23,18.54-18.52
		c1.26-3.76,2.2-7.56,2.25-11.55c0.01-0.42,0.04-0.85,0.09-1.27c0.35-3.06,0.88-6.12,1.01-9.19C268.61,95,268.27,92.62,268.05,90.26
		z M22.03,101.97c-0.07-4.24-0.2-8.49-0.01-12.72c0.16-3.47,2.32-5.92,5.44-7.05c2.55-0.92,5.35-1.41,8.07-1.55
		c8.4-0.45,16.81-0.67,25.22-0.93c2.71-0.08,5.43-0.01,8.15-0.01V79.2c4.63,0,9.26,0.03,13.89-0.02c1.15-0.01,1.67,0.24,1.71,1.53
		c0.24,7.17,0.56,14.34,0.86,21.51c0.07,1.61,0.2,3.22,0.24,4.83c0.04,1.56-0.13,1.76-1.65,1.68c-3.01-0.17-6.01-0.46-9.02-0.65
		c-5.17-0.34-10.34-0.59-15.51-1c-7.53-0.59-15.05-1.32-22.58-1.95c-4.19-0.35-8.39-0.64-12.58-0.94
		C22.46,104.04,22.06,103.77,22.03,101.97z M85.15,142.49c-3.41-0.67-6.86-1.18-10.28-1.84c-3.16-0.61-6.31-1.33-9.46-2
		c-2.66-0.57-5.33-1.05-7.96-1.72c-4.38-1.13-8.75-2.34-13.1-3.61c-4.21-1.23-8.18-3.03-11.79-5.55c-4.02-2.81-6.92-6.49-8.21-11.27
		c-0.68-2.49-1.16-5.04-1.69-7.56c-0.28-1.32,0.1-1.67,1.46-1.55c7.99,0.7,15.98,1.45,23.98,2.08c8.09,0.63,16.18,1.14,24.27,1.7
		c3.68,0.26,7.37,0.51,11.05,0.78c0.38,0.03,0.76,0.13,1.14,0.16c1.02,0.09,1.39,0.59,1.47,1.65c0.49,6.78,1.06,13.55,1.63,20.32
		c0.16,1.9,0.4,3.8,0.61,5.69C88.45,143.13,88.4,143.13,85.15,142.49z M193.59,113.73c-0.42,4.86-0.79,9.73-1.23,14.59
		c-0.42,4.65-0.91,9.29-1.32,13.94c-0.09,0.96-0.5,1.43-1.45,1.6c-4.23,0.7-8.44,1.49-12.67,2.15c-4.61,0.73-9.23,1.42-13.86,2.03
		c-3.53,0.46-7.08,0.83-10.64,1.14c-3.42,0.3-6.85,0.46-8.9,0.6c-9.33-0.19-17.24-0.74-25.1-2.05c-2.55-0.43-5.15-0.61-7.71-0.99
		c-4.24-0.64-8.46-1.36-12.69-2.04c-1.63-0.27-3.26-0.56-4.9-0.78c-0.8-0.1-1.07-0.54-1.13-1.27c-0.51-5.71-1.04-11.42-1.54-17.13
		c-0.34-3.85-0.63-7.7-0.96-11.55c-0.1-1.23,0.15-1.56,1.39-1.48c7.41,0.47,14.82,1.05,22.25,1.4c5.43,0.26,10.88,0.22,16.32,0.3
		c6.71,0.1,13.43,0.28,20.14,0.23c6.71-0.04,13.42-0.21,20.13-0.53c6.49-0.3,12.96-0.87,19.44-1.3c1.1-0.07,2.21-0.08,3.31-0.13
		C193.34,112.43,193.66,112.86,193.59,113.73z M193.93,107.48c-0.05,1.07-0.5,1.58-1.51,1.64c-2.88,0.18-5.76,0.33-8.65,0.51
		c-5.42,0.33-10.84,0.68-16.26,0.99c-2.84,0.16-5.68,0.35-8.52,0.38c-9.14,0.09-18.29,0.25-27.43,0.1
		c-7.98-0.13-15.96-0.6-23.94-0.96c-4.88-0.22-9.75-0.51-14.63-0.77c-0.13-0.01-0.26,0-0.38-0.02c-3.34-0.32-3.47-0.45-3.6-3.76
		c-0.3-7.55-0.59-15.1-0.9-22.66c-0.03-0.72-0.2-1.43-0.23-2.15c-0.08-1.54,0.09-1.7,1.6-1.72c1.11-0.01,2.21,0,3.32,0h12.63v-0.12
		c4,0,8,0.03,12-0.01c5.1-0.05,10.2-0.21,15.3-0.23c11.09-0.04,22.18-0.03,33.27,0.01c5.53,0.02,11.05,0.15,16.57,0.23
		c3.61,0.06,7.23,0.16,10.84,0.19c1.06,0.01,1.4,0.47,1.39,1.47c-0.07,4.3-0.03,8.59-0.17,12.88
		C194.48,98.16,194.13,102.81,193.93,107.48z M260.25,109.07c-0.91,9.48-5.06,16.8-13.88,21.14c-3.89,1.92-7.92,3.41-12.12,4.46
		c-6.01,1.49-12.01,3.02-18.06,4.32c-5.89,1.27-11.83,2.26-17.75,3.38c-0.88,0.17-1.74,0.39-2.62,0.55
		c-0.8,0.15-1.21-0.16-1.18-1.02c0.03-0.81,0.01-1.62,0.01-2.41c0.42-4.92,0.82-9.83,1.28-14.73c0.34-3.72,0.79-7.43,1.11-11.15
		c0.08-0.97,0.48-1.38,1.38-1.44c2.37-0.17,4.74-0.33,7.12-0.52c5.16-0.4,10.32-0.83,15.48-1.23c2.67-0.2,5.34-0.32,8-0.54
		c7.44-0.6,14.89-1.22,22.33-1.85c2.37-0.2,4.73-0.45,7.1-0.68C260.05,107.2,260.4,107.49,260.25,109.07z M260.88,103.14
		c-0.04,0.37-0.86,0.9-1.36,0.95c-4.14,0.38-8.3,0.64-12.44,0.98c-4.36,0.36-8.71,0.79-13.06,1.15c-2.92,0.24-5.84,0.43-8.77,0.63
		c-6.61,0.44-13.22,0.86-19.83,1.3c-2.07,0.14-4.14,0.38-6.22,0.46c-1.88,0.07-1.87-0.04-1.8-1.93c0.21-5.52,0.34-11.04,0.55-16.56
		c0.12-3.26,0.34-6.52,0.51-9.78c0.04-0.77,0.37-1.16,1.19-1.14c1.53,0.03,3.06,0.01,4.59,0.01v0.27c4.67,0,9.35-0.06,14.02,0.02
		c6.2,0.1,12.41,0.18,18.6,0.52c5.5,0.3,11.03,0.7,16.47,1.5c4.23,0.62,7.41,3.69,7.64,8.56c0.08,1.82,0.36,3.64,0.34,5.46
		C261.3,98.06,261.14,100.61,260.88,103.14z"/>
</g>
<g class="st0">
	<path class="st1" d="M132.31,117.12c-9.18,0.22-18.37,0.74-27.57,1.53c-23.13,3.15-46.25,7.36-68.33,15.77
		c-7.57,3.18-14.65,7.43-21.02,12.61c-4.19,3.15-7.37,7.37-7.37,12.63c0,6.31,3.15,10.49,6.31,14.69
		c8.41,6.31,17.88,10.51,27.34,14.73c16.82,5.26,33.63,9.45,50.45,11.55c9.46,2.1,19.97,2.11,30.48,3.16h25.24
		c8.41-1.05,16.82-1.04,25.23-2.09c18.92-2.1,36.79-5.26,54.65-10.51c10.51-3.15,19.98-6.32,29.45-12.63
		c6.3-4.2,11.54-9.46,13.64-15.77v-5.26c-2.1-6.31-7.34-11.56-13.65-15.77c-13.67-8.41-28.39-12.61-43.11-16.82
		C187.24,118.65,159.84,116.47,132.31,117.12z M146.43,126.07c5.67,0.15,11.39,0.46,17.17,0.99c13.67,2.1,27.33,4.22,41,7.37
		c1.05,0,3.14,0,4.19,1.05c-3.15,1.05-6.3,2.1-8.4,4.2c-3.15,3.15-4.2,6.32-6.31,9.47c-2.1,3.15-3.15,6.3-4.2,8.4l-3.16,6.3
		c-1.05-6.31-1.04-13.65-2.09-18.91c-1.05-3.15-2.11-5.26-4.22-7.37c-3.15-2.1-7.36-2.08-9.46,1.07c-3.15,3.15-4.2,8.4-5.26,12.6
		c-2.16,9.44-7.32,17.93-14.72,24.19c-2.1,1.05-3.15,2.08-5.26,3.14c3.15,1.05,6.31,1.05,9.46,0c4.2-1.05,6.32-4.2,8.42-7.36
		c3.15-5.26,6.3-10.51,8.4-16.81c1.05,0,1.06-1.07,1.06-1.07c0,5.26,1.04,11.58,2.09,16.84c1.05,3.15,1.05,5.24,2.1,8.4
		c2.34,1.05,5.03,1.05,7.37,0c2.1-1.05,3.15-3.15,4.2-5.26l3.14-6.31c2.1-4.2,4.2-9.47,6.31-13.68c1.05,5.26,1.06,11.58,2.11,16.84
		c0,3.15,3.14,7.34,6.3,8.4c4.2,1.05,8.41-1.06,11.56-4.22c-3.1-3.22-5.27-7.21-6.31-11.55c-1.05-9.46-2.08-17.87-2.08-27.33
		c1.04,0,3.13,0,4.18,1.05c8.41,3.15,16.82,6.32,24.18,12.63c4.2,3.15,6.31,7.35,6.31,11.55c0,3.15-2.1,6.3-4.2,8.4
		c-4.2,5.26-10.51,8.43-16.82,11.58c-13.67,6.31-28.38,9.45-43.1,11.55c-25.23,4.2-50.45,4.2-75.66,1.05
		c-15.77-2.1-31.55-5.26-46.26-10.51l-6.31-3.16c5.26,0,9.45-2.1,12.6-5.26c5.26-4.2,9.46-9.44,12.61-14.69
		c0-2.1,1.06-3.16,2.11-4.22c0,5.26-1.05,10.51-1.05,15.77c0,2.1,0,5.26,2.09,7.36c2.1,2.1,5.26,2.09,7.36,1.04
		c3.15-1.05,4.22-4.19,6.32-6.3c3.15-4.2,7.36-9.47,10.51-14.73c1.05-1.05,1.04-2.08,2.09-3.14c0,3.15-1.04,6.32-1.04,9.47
		s-1.05,7.36,0,10.51c1.05,2.1,3.14,5.26,6.3,5.26c4.2,0,7.37-2.12,9.47-6.33c-2.1-3.15-4.22-6.31-4.22-10.51
		c0-9.46,2.11-18.91,3.18-28.37c-5.26,1.05-10.53,2.1-13.69,6.31c-4.2,5.26-8.4,11.57-12.59,17.88c0,2.1-1.07,3.13-2.12,4.18
		c0-6.31,1.05-12.59,1.05-18.91c0-2.1-1.04-5.26-3.14-6.3c-3.15-1.05-7.37-0.01-9.47,2.09c-3.15,3.15-4.19,6.31-6.3,10.51
		c-1.05,2.1-2.11,5.26-3.16,7.35c-2.1,2.1-3.15,5.27-5.26,7.37c-3.15,4.2-7.36,8.41-11.56,10.51c-2.1,1.05-3.15,3.15-5.26,2.1
		c-5.26-3.15-10.51-6.31-13.67-11.56c-3.15-4.2-2.1-8.4,0-12.6c3.15-4.2,8.41-7.36,13.67-10.51c14.72-8.41,30.48-11.57,47.3-14.73
		C112.9,126.72,129.67,125.68,146.43,126.07L146.43,126.07z M143.62,137.56c-2.1,0-4.19,1.07-6.3,1.07c-2.1,0-4.22,1.04-4.22,2.09
		c-1.05,1.05-2.08,1.04-2.08,2.09c-2.11,9.46-4.23,19.98-3.18,30.5c0,2.1,0,4.2,2.1,5.26c3.15,2.1,6.31,1.05,8.41,0
		c3.15-1.05,6.32-4.2,8.43-7.36c5.26-7.36,9.44-16.82,13.64-26.28c1.05-2.1,2.11-5.26,3.16-7.37c-3.15,1.05-6.32,2.11-8.42,4.22
		c-3.15,2.1-3.15,5.26-5.26,8.41c-3.15,6.31-6.31,12.6-10.51,18.91C139.41,158.59,141.51,148.08,143.62,137.56L143.62,137.56z"/>
</g>
<g class="st0">
	<path class="st1" d="M191.17,215.42c-3.23,0.58-5.59,2.11-7.55,4.35c-2.26,2.59-3.19,5.62-3.07,9.03c0.07,2.02,0.01,2-2.05,1.98
		c-2.67-0.03-5.33,0-8-0.04c-0.86-0.01-1.31,0.23-1.23,1.17c0.08,0.95-0.5,1.13-1.31,1.13c-7.86-0.02-15.73,0-23.59-0.05
		c-1.09-0.01-2,0.13-2.65,1.06c-0.8,1.12-1.9,1.39-3.24,1.37c-4.83-0.04-9.65,0.02-14.48,0.03c-0.45,0-0.9-0.06-1.73-0.12
		c1.14-1.07,1.48-1.34,2.4-2.42c1.28-1.5,2.73-2.84,4.24-4.11c0.9-0.76,0.74-1.15-0.09-1.97c-0.76-0.76-1.45-1.62-2-2.55
		c-0.74-1.24-1.22-1.3-2.07-0.43c-3.88,3.99-7.78,7.95-11.72,11.88c-0.58,0.58-1.68,1.04-2.3,0.7c-2.92-1.58-6.09-2.6-9.3-1.76
		c-7.74,2.03-5.67,2.11-7.08,1.8c0.31-0.37,0.53-0.68,0.78-0.93c6.05-6.1,12.12-12.19,18.16-18.3c0.6-0.6,1.28-1.36,1.39-2.13
		c0.1-0.7-0.33-1.69-0.86-2.23c-0.72-0.75-1.19,0.22-1.63,0.67c-6.21,6.27-12.42,12.54-18.59,18.85c-0.8,0.82-1.59,1.35-2.76,1.18
		c-1.09-0.16-1.91,0.25-2.69,1.05c-0.42,0.43-1.19,0.72-1.81,0.72c-9.98,0.07-19.95,0.09-29.93,0.12c-0.38,0-0.77-0.07-1.31-0.12
		c2.33-2.36,4.51-4.57,6.82-6.91c-0.98-0.94-1.94-1.72-2.75-2.63c-6.2-6.94-5.4-17.27,1.77-23.18c0.9-0.74,0.9-0.74-0.23-2.8
		c4.62-2.92,9.53-3.8,14.83-2.33c3.32,0.93,6.28,2.75,8.6,5.3c3.29,3.61,4.71,7.82,4.77,12.91c2.05-2.05,3.98-3.74,5.61-5.68
		c1.6-1.91,3.33-2.95,5.9-2.59c1.49,0.21,3.03-0.03,4.55,0.07c1.25,0.08,1.6-0.41,1.55-1.59c-0.08-1.79,0.01-3.59-0.06-5.38
		c-0.03-0.87,0.18-1.26,1.13-1.24c2.44,0.06,4.88-0.02,7.31,0.07c3.58,0.14,6.53,1.72,9.04,4.19c0.32,0.31,0.47,0.79,0.72,1.21
		c1.44-1.57,2.45-2.88,3.67-3.96c2.82-2.51,6.21-3.65,9.96-3.85c0.93-0.05,1.34,0.18,1.39,1.17c0.02,0.37,0.53,1.01,0.86,1.03
		c3.63,0.24,6.91,1.43,9.87,3.52c0.1,0.07,0.26,0.04,0.59,0.08c-0.71-1.53-1.35-2.55-1.44-4.37c-0.04-0.85,0.06-1.71,0.3-2.52
		c1.54-5.23,6.98-6.81,11.05-4.38c2.69,1.61,4.14,4.93,3.35,8.1c-0.28,1.12-0.09,1.69,0.89,2.35c3.27,2.22,5.63,5.24,7.23,8.85
		c0.13,0.29,0.26,0.58,0.41,0.87c0.04,0.07,0.14,0.12,0.26,0.21c1.45-1.36,2.83-2.83,4.38-4.08c1.53-1.22,3.25-2.21,5.01-3.39
		c-0.37-0.34-0.75-0.68-1.14-1.03c-2.57-2.33-3.32-5.69-1.97-8.79c1.19-2.72,4.35-4.61,7.36-4.41c3.17,0.21,6.02,2.51,6.77,5.6
		c0.23,0.96,0.25,2.01,0.17,3c-0.07,0.94,0.2,1.21,1.12,1.19c2.53-0.05,5.06,0.02,7.59-0.04c1.11-0.03,1.42,0.35,1.38,1.44
		c-0.08,2.46-0.02,4.93-0.02,7.75c0.61-0.53,0.97-0.83,1.31-1.15c6.18-5.83,13.57-8.59,22.28-8.05c2.11,0.13,4.22,0.1,6.32-0.09
		c1.71-0.16,2.02,0.14,1.74,2.35c-1.08,8.5-1.15,17.1-0.03,25.6c0.34,2.56-0.01,3.08-1.56,3c-1.7-0.09-3.4-0.02-5.1-0.09
		c-0.92-0.04-1.29,0.29-1.43,1.21c-1.04,6.6-7.76,9.14-12.92,4.68c-1.32-1.14-2.02-2.82-2.19-4.56c-0.12-1.21-0.69-1.41-1.81-1.4
		c-5.8,0.05-11.6,0.04-17.4,0.06c-0.99,0-1.8-0.8-1.8-1.8c0-3.91,0.01-7.82,0.02-11.72C191.17,216.65,191.17,216.12,191.17,215.42z
		 M153.26,211.73c-0.29-0.42-0.68-0.81-0.86-1.28c-2.03-5.35-7.52-9.09-12.96-8.79c-5.96,0.33-11.11,4.36-12.57,9.89
		c-0.21,0.78-0.31,1.58-0.47,2.37c-0.28-0.34-0.36-0.67-0.41-1c-0.63-4.26-2.72-7.55-6.45-9.76c-3.11-1.85-6.54-1.55-9.93-1.4
		c-0.26,0.01-0.69,0.77-0.7,1.2c-0.07,1.84-0.07,3.68,0.01,5.51c0.05,1.17-0.41,1.5-1.53,1.47c-2.8-0.07-5.61-0.06-8.41,0.01
		c-0.58,0.01-1.32,0.24-1.71,0.63c-7.02,7.08-14.01,14.19-20.99,21.31c-0.23,0.23-0.37,0.54-0.7,1.02c3.21,0,6.14-0.09,9.06,0.04
		c1.54,0.07,2.54-0.52,3.58-1.58c6.66-6.85,13.38-13.65,20.1-20.45c0.3-0.3,0.74-0.63,1.13-0.66c1.28-0.08,2.58-0.14,3.85,0
		c2.77,0.31,4.4,2.31,3.9,4.96c-0.19,1-0.86,2.03-1.59,2.78c-4.75,4.93-9.57,9.79-14.36,14.68c-0.35,0.36-0.63,0.78-1.11,1.38
		c3.6,0,6.85-0.05,10.1,0.03c1.18,0.03,1.98-0.38,2.76-1.2c3.34-3.48,6.66-6.98,10.12-10.35c1.61-1.57,2.47-3.37,2.78-5.53
		c0.07-0.52,0.18-1.03,0.27-1.54c0.53,5.12,2.88,9.05,7.43,11.63c-1.84,1.92-3.54,3.7-5.24,5.48c2.33,0.32,4.42,0.12,6.45,0.36
		c3.48,0.41,6.28-0.47,8.28-3.45c0.62-0.92,1.51-1.14,2.61-1.13c10.34,0.03,20.68,0,31.03,0.02c1.1,0,1.64-0.21,1.74-1.46
		c0.56-6.86,4.86-11.85,11.62-13.49c0.85-0.21,1.13-0.56,1.11-1.39c-0.04-1.79-0.01-3.59-0.02-5.38c0-1.87-0.11-1.97-1.97-1.63
		c-7.86,1.46-13.25,6.21-17.02,12.99c-0.87,1.56-1.38,3.33-2.05,5c-0.01-3.94-0.82-7.67-2.73-11.1c-2.32-4.15-5.62-7.12-10.39-8.14
		c-0.43-0.09-1.28,0.21-1.39,0.52c-0.87,2.46-1.61,4.96-2.38,7.45L153.26,211.73z M60.93,232.39c0.11,0.17,0.21,0.33,0.32,0.5
		c3.47,0,6.94,0.01,10.4-0.02c0.28,0,0.63-0.2,0.84-0.41c2.98-2.99,6.15-5.83,8.86-9.05c3.77-4.49,4.02-10.39,1.03-15.44
		c-2.55-4.32-8.04-7.38-13.9-6.35c-5.15,0.91-9.62,4.91-10.91,10.08c-1.31,5.24,0.62,10.81,4.91,13.97
		c1.02,0.75,2.15,1.36,3.53,2.22C64.27,229.43,62.6,230.91,60.93,232.39z M201.62,224.08c0-3.07,0-6.14,0-9.2
		c0-3.81-0.02-7.63,0.03-11.44c0.01-1.02-0.31-1.37-1.35-1.33c-1.93,0.07-3.86,0.02-5.79-0.01c-0.81-0.01-1.3,0.19-1.3,1.15
		c0.04,8.08,0.05,16.17,0.06,24.25c0,0.76,0.24,1.05,1.04,1.05c4.82-0.03,9.65-0.02,14.47,0c0.82,0,1.14-0.31,1.18-1.12
		c0.25-6.07,4.6-12.21,11.65-13.84c0.91-0.21,1.19-0.65,1.16-1.52c-0.06-1.97-0.13-3.95-0.08-5.92c0.03-1.23-0.47-1.38-1.5-1.14
		c-5.64,1.34-10.31,4.26-14.1,8.62C204.45,216.65,202.7,220.15,201.62,224.08z M225.07,215.49
		C225.07,215.49,225.08,215.49,225.07,215.49c0.01,4,0.03,7.99-0.01,11.99c-0.01,0.91,0.33,1.22,1.2,1.2
		c1.98-0.04,3.95-0.06,5.93-0.01c0.92,0.02,1.2-0.33,1.2-1.21c-0.02-8.04-0.01-16.09,0.01-24.13c0-0.83-0.32-1.16-1.14-1.15
		c-1.93,0.02-3.86,0.04-5.79-0.01c-1.07-0.03-1.44,0.38-1.42,1.46C225.1,207.59,225.07,211.54,225.07,215.49z M220.63,226.07
		c3.46-1.73,4.6-3.78,3.87-6.79c-0.54-2.22-2.78-3.91-5.1-3.86c-2.38,0.05-4.67,2-5.16,4.39c-0.55,2.67,0.81,4.79,4.06,6.29
		c-3.62,2.31-4.65,4.25-3.69,6.96c0.84,2.37,3.18,3.86,5.59,3.57c2.69-0.33,4.43-2.11,4.78-4.87
		C225.3,229.26,223.76,227.21,220.63,226.07z M151.58,197.76c0.02,3.11,2.34,5.45,5.38,5.43c3.04-0.02,5.48-2.47,5.42-5.44
		c-0.06-2.88-2.56-5.32-5.45-5.32C153.98,192.43,151.57,194.84,151.58,197.76z M191.57,197.54c-0.02-2.95-2.4-5.25-5.4-5.24
		c-2.98,0.01-5.37,2.47-5.33,5.48c0.04,2.93,2.47,5.3,5.41,5.26C189.25,203.01,191.59,200.58,191.57,197.54z"/>
	<path class="st1" d="M209.1,88.11c0,9.29,0.25,18.58-0.06,27.86c-0.45,13.51-4.82,25.81-12.49,36.95
		c-6.35,9.21-14.73,16.22-23.94,22.35c-7.69,5.11-15.86,9.29-24.53,12.47c-2.16,0.79-4.46,0.78-6.62-0.05
		c-14.64-5.59-27.89-13.49-39.26-24.3c-8.43-8.02-14.39-17.7-18.06-28.79c-2.58-7.81-3.59-15.82-3.57-24.02
		c0.04-17.47,0.03-34.95-0.01-52.42c0-1.65,1-2.03,2.21-2.27c6.26-1.27,12.5-2.64,18.79-3.73c15.49-2.68,31.11-3.74,46.83-3.56
		c10.82,0.12,21.61,0.79,32.29,2.44c8.8,1.36,17.54,3.18,26.29,4.85c1.98,0.38,2.17,0.76,2.17,2.84c0,9.79,0,19.59,0,29.38
		C209.12,88.11,209.11,88.11,209.1,88.11z M82.51,89.01c0.01,0,0.03,0,0.04,0c0,8.09-0.12,16.19,0.02,24.28
		c0.37,20.19,8.05,37.19,23.03,50.7c11.15,10.05,23.99,17.43,38.14,22.46c0.74,0.26,1.74,0.2,2.49-0.07
		c7.39-2.62,14.45-5.95,21.13-10.05c10.78-6.62,20.63-14.28,27.86-24.89c7.25-10.63,11.27-22.37,11.91-35.19
		c0.3-6.1,0.11-12.23,0.11-18.34c0.01-12.83,0.01-25.66,0.02-38.48c0-0.86,0.03-1.53-1.14-1.8c-13.19-3.03-26.52-5.24-40.01-6.3
		c-14.87-1.17-29.75-1.11-44.62,0.23c-12.56,1.13-24.98,3.11-37.26,6c-1.33,0.31-1.76,0.85-1.75,2.22
		C82.54,69.52,82.51,79.27,82.51,89.01z"/>
	<path class="st1" d="M145.09,215.41c-0.02,2.99-2.38,5.3-5.39,5.27c-2.9-0.02-5.35-2.53-5.31-5.42c0.04-3.03,2.44-5.36,5.51-5.35
		C142.77,209.93,145.11,212.41,145.09,215.41z"/>
	<path class="st1" d="M153.22,211.75c0.41,0.13,0.82,0.34,1.25,0.39c3.45,0.45,6.15,3.16,6.6,6.6c0.13,1.02-0.07,1.56-1.25,1.53
		c-2.37-0.05-4.75-0.02-7.33-0.02c0.19-0.98,0.42-1.72,0.46-2.46c0.09-1.59,0.06-3.18,0.11-4.78c0.01-0.43,0.12-0.85,0.19-1.29
		C153.26,211.73,153.22,211.75,153.22,211.75z"/>
	<path class="st1" d="M75.99,215.37c0,2.97-2.32,5.27-5.36,5.31c-2.89,0.04-5.34-2.32-5.38-5.17c-0.04-3.22,2.32-5.62,5.51-5.6
		C73.65,209.92,75.98,212.36,75.99,215.37z"/>
	<path class="st1" d="M86.38,89.92c0-9.2,0.02-18.39-0.03-27.59c-0.01-1.12,0.41-1.5,1.43-1.72c15.58-3.4,31.31-5.46,47.25-6.08
		c13.31-0.52,26.58-0.13,39.77,1.61c9.15,1.21,18.22,3,27.33,4.51c0.98,0.16,1.38,0.6,1.38,1.65c-0.03,17.33,0.15,34.67-0.08,52
		c-0.17,12.86-4.18,24.62-11.49,35.26c-6.77,9.84-15.97,16.92-25.94,23.14c-6.22,3.88-12.8,7.04-19.67,9.6
		c-0.79,0.29-1.86,0.37-2.62,0.08c-14.58-5.52-27.7-13.41-38.82-24.4c-6.64-6.56-11.35-14.41-14.57-23.15
		c-2.55-6.92-3.92-14.06-3.92-21.45c0-7.82,0-15.63,0-23.45C86.39,89.92,86.39,89.92,86.38,89.92z M202.6,90.3
		C202.6,90.3,202.6,90.3,202.6,90.3c-0.01-9.1-0.02-18.21,0.01-27.31c0-1.02-0.3-1.49-1.32-1.68c-4.47-0.83-8.92-1.79-13.4-2.58
		c-10.24-1.79-20.58-2.91-30.96-3.32c-11.53-0.45-23.06-0.35-34.58,0.73c-11.18,1.05-22.25,2.72-33.24,5.02
		c-1.54,0.32-1.93,1-1.92,2.5c0.05,16.18,0.06,32.37,0.03,48.55c-0.01,7,1,13.81,3.17,20.47c3.74,11.5,10.33,21.06,19.46,28.89
		c10,8.58,21.18,15.21,33.52,19.84c0.85,0.32,2.02,0.34,2.87,0.03c12.01-4.45,22.94-10.82,32.72-19.06
		c15.43-13.01,23.44-29.62,23.62-49.88C202.66,105.1,202.6,97.7,202.6,90.3z"/>
	<path class="st1" d="M144.3,169.47c-0.36-0.95-0.61-1.63-0.87-2.3c-5.03-12.87-12.67-23.94-23.18-32.91
		c-3.73-3.18-7.82-5.95-11.86-8.73c-1.19-0.82-1.54-1.6-1.3-2.91c0.97-5.5,2.36-10.88,4.75-15.93
		c7.72-16.32,20.25-27.12,37.48-32.45c4.68-1.45,9.49-2.21,14.38-2.3c1.31-0.02,2.1-0.32,2.63-1.75c1.27-3.45,4.75-5.65,8.4-5.64
		c1.32,0,1.57,0.37,1.09,1.59c-0.18,0.47-0.29,0.99-0.56,1.4c-1.46,2.2-0.56,3.74,1.1,5.42c2.74,2.77,5.23,5.8,7.86,8.69
		c1.02,1.12,1.39,2.33,0.88,3.79c-0.46,1.32-0.14,2.49,0.58,3.66c4.14,6.68,8.24,13.38,12.35,20.08c1.51,2.46,0.81,4.9-1.55,6.5
		c-2.34,1.59-4.54,3.39-6.7,5.22c-1.72,1.46-2.4,1.34-2.96-0.8c-0.5-1.92-2.09-3.47-3.9-3.61c-0.49-0.04-1.17,0.26-1.47,0.64
		c-0.16,0.21,0.16,1.02,0.48,1.35c0.73,0.75,1.68,1.3,2.37,2.09c0.4,0.45,0.46,1.19,0.67,1.8c-0.58,0.07-1.17,0.26-1.73,0.19
		c-1.68-0.19-3.35-0.56-5.03-0.71c-1.64-0.15-1.93-0.49-1.94-2.1c-0.01-0.73-0.32-1.69-0.84-2.14c-2.14-1.88-4.4-3.62-6.66-5.36
		c-0.4-0.31-1-0.48-1.52-0.52c-3.9-0.35-7.28-1.86-10.09-4.57c-0.75-0.72-1.18-0.64-1.92,0.02c-2.99,2.66-4.65,5.97-5.22,9.9
		c-0.39,2.69,0.27,5.09,1.71,7.34c2.43,3.8,4.11,7.85,4.69,12.39c0.69,5.44-0.25,10.56-2.71,15.37c-2.84,5.56-5.89,11.02-8.85,16.52
		C144.78,168.84,144.63,169.01,144.3,169.47z"/>
	<path class="st1" d="M166.97,66.8c-0.92,1.19-1.69,2.33-2.62,3.33c-0.31,0.34-0.99,0.44-1.51,0.48
		c-20.26,1.44-36.12,10.6-47.59,27.3c-4.93,7.18-7.97,15.18-9.28,23.81c-0.1,0.62-0.24,1.24-0.39,2.01
		c-0.5-0.21-0.88-0.34-1.23-0.51c-3.69-1.77-7.34-3.6-11.07-5.29c-1.16-0.53-1-1.23-0.74-2.11c2.82-9.61,7.37-18.3,13.98-25.86
		c11.18-12.8,25.23-20.42,41.96-23.12c5.75-0.93,11.54-0.84,17.32-0.35C166.15,66.53,166.49,66.67,166.97,66.8z"/>
	<path class="st1" d="M145.73,170.29c2.37-4.33,4.74-8.36,6.81-12.54c1.73-3.49,3.48-7.04,4.57-10.75
		c2.31-7.92,0.8-15.53-3.73-22.24c-4.18-6.19-1.07-12.81,2.41-16.21c0.23-0.22,0.9-0.4,1.01-0.28c0.55,0.6,1.52,1.5,1.36,1.94
		c-0.89,2.5,0.22,4.3,1.56,6.22c3.83,5.5,6.62,11.5,7.33,18.21c0.52,4.94-0.54,9.69-2.99,14.07c-4.57,8.14-10.5,15.15-17.67,21.12
		C146.24,169.96,146.09,170.04,145.73,170.29z"/>
</g>
<g class="st0">
	<path class="st1" d="M141.52,64.19c19.18,0.27,13.65-2.87,23.32,13.23c8.08,13.46,15.24,27.47,22.89,41.18
		c2.11,3.78,2.21,7.28,0.04,11.11c-9.6,16.96-18.99,34.04-28.71,50.93c-0.98,1.71-3.6,3.41-5.53,3.49
		c-8.12,0.37-16.28,0.3-24.41-0.03c-1.74-0.07-4.16-1.46-5.01-2.95c-10.1-17.64-20.07-35.36-29.75-53.23
		c-1.06-1.95-0.96-5.49,0.11-7.48c9.51-17.66,19.36-35.13,29.12-52.66c1.42-2.55,3.53-3.78,6.57-3.65
		C133.93,64.32,137.73,64.19,141.52,64.19z M147.38,79.64c-0.19-0.09-0.38-0.18-0.57-0.27c-0.35,0.41-0.79,0.78-1.03,1.25
		c-6.93,13.45-13.92,26.86-20.63,40.42c-0.84,1.7-0.9,4.48-0.1,6.18c4.27,9.13,8.84,18.13,13.5,27.07c1.22,2.34,1.46,4.28,0.24,6.66
		c-1.32,2.57-2.26,5.33-3.36,8.01c0.32,0.14,0.65,0.29,0.97,0.43c7.08-13.83,14.09-27.69,21.28-41.46c1.41-2.7,1.2-4.91-0.12-7.48
		c-4.43-8.6-8.57-17.34-13.14-25.86c-1.44-2.68-1.55-4.82-0.21-7.42C145.45,84.75,146.33,82.15,147.38,79.64z"/>
	<path class="st1" d="M130.12,243.79c-4.05,1.21-6.72-0.08-9.13-3c-3.63-4.4-7.6-8.51-12.01-13.39c0,5.88,0,10.97,0,16.45
		c-2.27,0-4.13,0-6.7,0c0-8.53,0-17.12,0-25.97c3.58-0.84,6.89-0.36,9.76,3.38c3.29,4.29,7.27,8.05,11.75,12.9
		c0-6.07,0-11.14,0-16.36c2.41,0,4.21,0,6.32,0C130.12,226.41,130.12,235.03,130.12,243.79z"/>
	<path class="st1" d="M65.63,243.85c-3.9,0.32-7.29,1.68-9.49-3c-2.79-5.95-3.54-6.01-10.77-4.5c-0.05,1.16-0.13,2.38-0.16,3.61
		c-0.03,1.24-0.01,2.48-0.01,3.99c-2.34,0-4.37,0-7.17,0c0-8.57,0-17.15,0-25.98c6.38,0,13.36-0.4,20.25,0.23
		c2.19,0.2,5.09,2.75,5.98,4.92c1.73,4.21,0.3,8.26-3.8,11.24C62.15,237.46,63.79,240.47,65.63,243.85z M45.45,222.84
		c0,2.87,0,5.16,0,7.87c2.9,0,5.54,0.01,8.18,0c2.56-0.01,3.88-1.4,4.05-3.86c0.18-2.68-1.47-3.85-3.85-3.98
		C51.19,222.73,48.54,222.84,45.45,222.84z"/>
	<path class="st1" d="M95.4,239.1c0,2.02,0,3.25,0,4.78c-7.63,0-15.13,0-22.93,0c0-8.57,0-17.06,0-25.91c7.28,0,14.62,0,22.23,0
		c0,1.39,0,2.84,0,4.66c-4.95,0-9.81,0-14.93,0c0,1.84,0,3.31,0,5.38c4.51,0,9.05,0,13.82,0c0,1.93,0,3.27,0,5.05
		c-4.51,0-8.94,0-13.72,0c0,2.14,0,3.85,0,6.03C85.01,239.1,90.01,239.1,95.4,239.1z"/>
	<path class="st1" d="M170.8,217.83c1.73,0,4.06,0,6.9,0c0,4.86-0.05,9.59,0.01,14.32c0.07,5.25,1.57,6.65,6.92,6.69
		c5.37,0.05,6.74-1.24,6.82-6.68c0.07-4.75,0.02-9.5,0.02-14.39c2.44,0,4.38,0,7.31,0c-0.34,6.84-0.68,13.62-1.03,20.39
		c-0.01,0.27-0.16,0.54-0.28,0.79c-2.1,4.59-10.15,6.98-17.77,5.29c-6.18-1.38-8.84-4.45-8.89-10.43
		C170.77,228.67,170.8,223.53,170.8,217.83z"/>
	<path class="st1" d="M167.33,243.96c-3.97,0.08-7.41,1.83-8.67-2.98c-0.16-0.62-1.45-1.31-2.24-1.35c-3.5-0.14-7.02-0.12-10.53,0
		c-0.68,0.02-1.83,0.61-1.94,1.11c-1.14,5.23-4.91,2.98-8.95,3.65c4.03-9.14,7.52-17.33,11.28-25.4c1.11-2.38,9.07-2.02,10.18,0.4
		C160.06,227.28,163.49,235.24,167.33,243.96z M156.15,234.38c-1.66-3.92-3.09-7.29-4.91-11.6c-1.87,4.49-3.29,7.91-4.83,11.6
		C149.69,234.38,152.47,234.38,156.15,234.38z"/>
	<path class="st1" d="M252.01,217.91c0,1.68,0,3.03,0,4.72c-3.25,0-6.28,0-9.82,0c0,7.25,0,14.18,0,21.34c-2.55,0-4.59,0-7.11,0
		c0-6.96,0-13.88,0-21.24c-3.6,0-6.75,0-10.07,0c0-1.8,0-3.16,0-4.81C233.88,217.91,242.79,217.91,252.01,217.91z"/>
	<path class="st1" d="M206.11,217.91c0.66-0.11,1.19-0.26,1.73-0.27c1.53-0.03,3.06-0.01,5.01-0.01c0,7.12,0,14.06,0,21.41
		c5.11,0,9.81,0,14.86,0c0,1.82,0,3.23,0,4.92c-7.14,0-14.22,0-21.6,0C206.11,235.23,206.11,226.62,206.11,217.91z"/>
</g>
<g class="st0">
	<path class="st1" d="M148.49,96.56c22.16,0.41,41.76,3.87,59.89,13.63c9.41,5.06,17.6,11.54,23.57,20.57
		c9.11,13.76,7.66,31.23-3.2,43.78c-11.43,13.2-26.29,20.33-42.63,24.92c-15.56,4.38-31.45,5.43-47.53,4.14
		c-17.62-1.42-34.35-5.83-49.68-14.89c-7.62-4.5-14.31-10.12-19.33-17.46c-9.5-13.9-9.19-29.08,0.95-42.95
		c6.17-8.44,14.47-14.39,23.71-19.08c13.2-6.71,27.26-10.4,41.97-11.71C140.9,97.08,145.6,96.78,148.49,96.56z M162.06,183.94
		c0-1.6,0-3.01,0-4.41c-4.9-0.06-5.61-0.79-5.73-5.81c-0.04-1.64,0-3.29,0-4.94c0-15.27,0-30.53,0-45.8c0-2.21,0-4.41,0-6.59
		c-4.24-0.59-6.42-0.35-9.8,1.07c-1.99,0.84-3.95,1.75-5.95,2.57c-2.66,1.09-2.97,1.63-2.37,4.66c0.25,0.04,0.53,0.1,0.82,0.12
		c3.57,0.19,4.21,0.87,4.21,4.5c0,2.69,0,5.39,0,8.08c0.02,12.65,0.06,25.29,0.07,37.94c0,3.06-1.13,4.12-4.12,4.04
		c-0.42-0.01-0.84,0.11-1.24,0.17c0,1.52,0,2.92,0,4.39C146,183.94,153.91,183.94,162.06,183.94z M83.45,148.05
		c1.21-10.5,6.62-18.46,14.57-24.9c9.49-7.68,20.45-12.14,32.33-14.39c5.24-0.99,10.58-1.52,15.91-2.27c0-1.32,0-2.78,0-4.42
		c-1.39,0.13-2.63,0.27-3.88,0.35c-14.65,0.91-28.53,4.5-41.23,12.03c-8.83,5.23-16.25,11.91-20.73,21.38
		c-1.82,3.83-2.84,7.88-3.15,12.21C79.4,148.05,81.26,148.05,83.45,148.05z M153.22,106.68c2.66,0.23,5.25,0.41,7.83,0.68
		c12.01,1.28,23.39,4.6,33.78,10.87c9.44,5.69,17.1,13,20.4,23.95c0.57,1.9,0.92,3.88,1.36,5.76c2.09,0,4.06,0,6.23,0
		c-0.3-1.81-0.47-3.44-0.85-5.02c-2.75-11.48-10.05-19.63-19.49-26.04c-10.92-7.42-23.14-11.55-36.13-13.49
		c-4.31-0.64-8.67-0.95-13.13-1.43C153.22,103.75,153.22,105.15,153.22,106.68z M216.23,154.79c-0.15,0.4-0.3,0.66-0.36,0.95
		c-2.13,9.88-8.12,17.09-15.99,22.96c-11.18,8.33-24.01,12.29-37.64,14.09c-3,0.39-6.02,0.6-8.99,0.88c0,1.6,0,2.92,0,4.53
		c3.23-0.29,6.33-0.51,9.42-0.86c13.34-1.51,25.94-5.32,37.43-12.4c8.9-5.49,16.17-12.52,20.23-22.36c0.99-2.4,1.5-4.99,2.31-7.78
		c-1.64,0-2.68,0-3.73,0C218.01,154.79,217.12,154.79,216.23,154.79z M146.32,193.75c-0.33-0.15-0.46-0.25-0.6-0.26
		c-0.52-0.06-1.04-0.11-1.56-0.14c-11.32-0.53-22.16-3.14-32.45-7.83c-8.74-3.98-16.7-9.2-22.04-17.41c-2.61-4-4.38-8.54-6.7-13.18
		c-1.23,0-3.21,0-5.31,0c0.07,0.67,0.07,1.19,0.17,1.69c1.92,8.89,6.74,15.99,13.5,21.89c15.74,13.73,34.66,18.42,54.99,19.54
		C146.32,196.5,146.32,195.16,146.32,193.75z M206.28,132.94c-10.79,0-21.18,0.02-31.58-0.03c-1.47-0.01-3.39,0.82-4.1-1.5
		c-0.05-0.16-0.52-0.25-0.79-0.26c-2.22-0.02-4.44-0.01-6.73-0.01c0,3.44,0,6.61,0,9.99c1.08,0,2.04,0,2.99,0
		c10.47-0.01,20.94-0.02,31.42-0.02c5.11,0,5.73-0.42,7.62-5.12C205.47,135.11,205.79,134.22,206.28,132.94z M93.74,133.01
		c0.43,1.3,0.75,2.36,1.14,3.39c1.43,3.85,2.69,4.7,6.84,4.7c11.07,0.01,22.14,0.02,33.21,0.01c0.64,0,1.28-0.08,1.89-0.13
		c0-2.77,0-5.35,0-7.99C122.46,133.01,108.27,133.01,93.74,133.01z M99.31,148.41c0.48,1.36,0.87,2.55,1.31,3.72
		c1.3,3.43,2.5,4.25,6.22,4.25c9.21,0,18.42,0,27.63,0c0.79,0,1.58,0,2.38,0c0-2.83,0-5.35,0-7.98
		C124.34,148.41,111.93,148.41,99.31,148.41z M200.66,148.44c-12.78,0-25.16,0-37.52,0c0,2.72,0,5.3,0,7.94
		c10.64,0,21.11,0.09,31.57-0.11c1.26-0.02,2.82-1.34,3.64-2.48C199.39,152.33,199.84,150.43,200.66,148.44z M105.66,165.85
		c0.61,1.68,1.13,3.14,1.67,4.59c0.96,2.59,2.69,3.94,5.59,3.86c3.5-0.1,7.03-0.18,10.52,0.11c4.61,0.39,8.66-0.91,12.43-3.35
		c0.48-0.31,1.02-0.95,1.04-1.45c0.1-2.64,0.05-5.28,0.05-8.21c-1.7,0.86-3.14,1.47-4.46,2.28c-2.76,1.68-5.68,2.33-8.93,2.23
		C117.69,165.72,111.8,165.85,105.66,165.85z M194.47,165.85c-4.88,0-9.35,0.16-13.8-0.07c-1.99-0.11-4.27-0.55-5.84-1.66
		c-3.77-2.65-7.76-1.81-11.74-1.83c0,2.66,0,5.02,0,7.03c2.53,0.6,5.24,0.58,7.14,1.81c4.48,2.91,9.18,3.69,14.31,3.17
		c0.96-0.1,1.95-0.04,2.91,0.04c1.83,0.14,3.27-0.55,4.1-2.14C192.57,170.23,193.41,168.18,194.47,165.85z"/>
	<path class="st1" d="M178.85,229.4c-0.36,1.78-0.74,3.56-1.08,5.34c-0.87,4.48-1.72,8.96-2.57,13.45c-0.11,0.59-0.41,0.8-1.02,0.79
		c-2.58-0.03-5.17-0.04-7.75,0.01c-0.79,0.02-1.09-0.3-1.33-1c-3.09-8.78-6.21-17.56-9.32-26.34c-0.84-2.38-1.68-4.76-2.59-7.32
		c0.98,0,1.88,0,2.78,0c1.38,0,2.77,0.11,4.14-0.03c1.17-0.12,1.57,0.42,1.91,1.38c2.39,6.83,4.81,13.66,7.23,20.48
		c0.14,0.4,0.35,0.78,0.53,1.17c0.11-0.01,0.22-0.01,0.33-0.02c0.23-1.03,0.47-2.06,0.67-3.1c1.23-6.34,2.46-12.69,3.67-19.03
		c0.12-0.63,0.37-0.87,1.04-0.86c2.33,0.04,4.67,0.04,7.01,0c0.67-0.01,0.88,0.23,1.01,0.88c1.22,6.42,2.48,12.82,3.72,19.24
		c0.18,0.95,0.37,1.9,0.55,2.85c0.11,0.02,0.22,0.04,0.32,0.06c0.19-0.37,0.42-0.72,0.56-1.11c2.28-6.42,4.54-12.85,6.81-19.28
		c0.76-2.15,1.44-2.63,3.75-2.63c1.8,0,3.6,0,5.5,0c-1.03,2.94-2.01,5.78-3.02,8.62c-2.95,8.31-5.93,16.61-8.84,24.93
		c-0.31,0.88-0.73,1.11-1.59,1.09c-2.48-0.05-4.95-0.04-7.43,0c-0.72,0.01-1-0.27-1.12-0.92c-1.13-5.93-2.27-11.86-3.42-17.79
		c-0.06-0.3-0.18-0.59-0.27-0.88C178.98,229.4,178.92,229.4,178.85,229.4z"/>
	<path class="st1" d="M158.88,249.03c-2.78,0-5.39,0.02-8.01-0.03c-0.28-0.01-0.69-0.43-0.81-0.75c-0.86-2.27-1.68-4.55-2.45-6.84
		c-0.22-0.67-0.57-0.85-1.22-0.84c-4.25,0.02-8.49,0.03-12.74,0c-0.69,0-0.98,0.25-1.19,0.88c-0.79,2.29-1.62,4.57-2.48,6.83
		c-0.12,0.31-0.54,0.71-0.83,0.72c-2.58,0.06-5.16,0.03-7.91,0.03c0.13-0.43,0.21-0.74,0.31-1.05c3.48-9.87,6.96-19.74,10.45-29.61
		c0.25-0.69,0.52-1.39,0.86-2.04c0.67-1.25,1.76-1.95,3.17-1.97c3.29-0.05,6.58,0,9.87-0.05c0.77-0.01,0.85,0.49,1.02,0.97
		c2.64,7.45,5.28,14.9,7.92,22.35C156.16,241.38,157.49,245.11,158.88,249.03z M134.7,235.22c3.68,0,7.11,0,10.58,0
		c-0.02-0.21-0.01-0.31-0.05-0.41c-1.58-4.48-3.15-8.95-4.75-13.42c-0.08-0.22-0.34-0.37-0.52-0.55c-0.16,0.21-0.37,0.41-0.46,0.65
		c-1.13,3.18-2.25,6.36-3.37,9.54C135.67,232.38,135.21,233.74,134.7,235.22z"/>
	<path class="st1" d="M102.37,234.02c0,5.07,0,9.97,0,14.94c-2.82,0-5.57,0-8.4,0c0-0.42,0-0.76,0-1.11c0-9.59,0-19.17,0-28.76
		c0-3.27,1.45-4.75,4.7-4.75c9.16-0.02,18.32-0.01,27.48,0c0.27,0,0.54,0.04,0.92,0.07c-0.58,1.62-1.1,3.19-1.74,4.7
		c-0.11,0.26-0.71,0.45-1.08,0.45c-6.44,0.03-12.88,0.02-19.31,0.02c-2.11,0-2.55,0.43-2.55,2.52c0,2.04,0,4.09,0,6.23
		c6.59,0,13.08,0,19.71,0c-0.66,1.84-1.23,3.57-1.91,5.26c-0.1,0.24-0.66,0.41-1.02,0.41c-5.13,0.03-10.26,0.02-15.39,0.02
		C103.36,234.02,102.94,234.02,102.37,234.02z"/>
</g>
<g class="st0">
	<path class="st1" d="M64.25,151.32c0.08-46.78,38.22-84.44,84.72-84.15c46.37,0.28,83.91,38.03,83.73,84.52
		c-0.17,46.66-38.06,84.01-84.31,83.95C101.55,235.57,64.2,197.47,64.25,151.32z M225.69,151.44c0-42.8-34.43-77.17-77.39-77.23
		c-42.41-0.07-76.93,34.51-77,77.11c-0.07,42.37,33.95,76.8,76.22,77.29C190.92,229.11,225.65,194.22,225.69,151.44z"/>
	<path class="st1" d="M148.55,102.26c27.35,0.02,49.77,22.63,49.05,50.44c-0.69,26.83-23.04,48.59-50.55,47.81
		c-26.89-0.76-48.21-23.15-47.69-50.07C99.87,123.75,121.8,102.21,148.55,102.26z M148.56,151.47c0.27-0.02,0.53-0.06,0.8-0.06
		c13.36-0.01,26.72-0.01,40.08-0.01c0.36,0,0.71,0,1.06,0c0.35-24.06-20.45-42.76-41.96-41.98c-0.01,0.29-0.04,0.59-0.04,0.89
		c0,12.92-0.01,25.85-0.01,38.77c0,0.8,0.06,1.61,0.09,2.41c-0.27-0.02-0.53-0.07-0.8-0.07c-13.5,0-27,0-40.51,0
		c-0.29,0-0.57,0.04-0.85,0.07c-0.12,24.84,21.3,42.71,42.01,41.86c0.01-0.26,0.04-0.52,0.04-0.78c0-10.37,0-20.74,0.01-31.12
		C148.49,158.13,148.54,154.8,148.56,151.47z"/>
	<path class="st1" d="M148.49,92.18c0.53-1.5,0.99-2.79,1.44-4.08c1.22-3.53,2.44-7.05,3.62-10.59c0.21-0.61,0.45-0.83,1.14-0.72
		c1.93,0.29,3.87,0.46,5.8,0.73c0.27,0.04,0.7,0.43,0.71,0.67c0.27,7.09,0.5,14.19,0.73,21.29c0,0.03-0.03,0.06-0.11,0.23
		c-1.79-0.27-3.62-0.55-5.55-0.84c-0.18-4.77-0.36-9.49-0.54-14.2c-0.06-0.01-0.12-0.02-0.18-0.04c-0.54,1.54-1.09,3.07-1.62,4.61
		c-1.02,2.92-2.04,5.84-3.03,8.77c-0.21,0.63-0.48,0.95-1.2,0.89c-1.07-0.09-2.41,0.29-3.14-0.22c-0.73-0.51-0.88-1.88-1.23-2.88
		c-1.23-3.49-2.43-6.99-3.64-10.48c-0.08-0.24-0.18-0.47-0.44-0.68c-0.18,4.72-0.36,9.44-0.54,14.21c-1.9,0.3-3.71,0.59-5.68,0.9
		c0-0.56-0.02-1.05,0-1.53c0.24-6.52,0.5-13.05,0.7-19.57c0.03-0.86,0.27-1.14,1.14-1.2c1.81-0.13,3.62-0.35,5.41-0.63
		c0.7-0.11,0.94,0.11,1.14,0.72c1.54,4.52,3.1,9.03,4.66,13.54C148.17,91.36,148.29,91.65,148.49,92.18z"/>
	<path class="st1" d="M201.46,116.97c3.66-1.67,7.32-3.35,11.06-5.06c0.96,1.61,1.88,3.16,2.87,4.83
		c-6.68,3.09-13.29,6.14-19.96,9.22c-0.9-1.52-1.81-2.97-2.62-4.48c-0.12-0.23,0.08-0.75,0.29-1.03c2.75-3.66,5.53-7.29,8.3-10.94
		c0.22-0.29,0.43-0.58,0.55-1.03c-1.35,0.61-2.71,1.21-4.06,1.83c-3.15,1.43-6.31,2.86-9.45,4.32c-0.61,0.29-1.01,0.24-1.5-0.25
		c-1.07-1.06-2.2-2.06-3.36-3.13c4.42-5.85,8.79-11.64,13.25-17.54c1.41,1.29,2.76,2.53,4.18,3.84c-2.48,3.26-4.93,6.48-7.38,9.71
		c0.04,0.06,0.08,0.12,0.12,0.18c3.92-1.82,7.83-3.64,11.85-5.5c1.14,1.4,2.3,2.79,3.38,4.22c0.12,0.16-0.07,0.68-0.26,0.92
		c-2.35,3.12-4.73,6.21-7.1,9.31c-0.1,0.13-0.19,0.27-0.29,0.4C201.38,116.86,201.42,116.91,201.46,116.97z"/>
	<path class="st1" d="M104.8,103.09c1.48-1.04,3.14-1.48,4.94-1.08c4.03,0.88,5.96,5.46,3.7,8.97c-1.07,1.66-2.4,3.16-3.64,4.71
		c-2.75,3.45-5.51,6.88-8.27,10.31c-0.04,0.05-0.1,0.09-0.24,0.2c-5.71-4.58-11.44-9.17-17.24-13.82c1.67-2.07,3.32-4.1,4.95-6.15
		c2.06-2.58,4.09-5.17,6.16-7.74c1.46-1.82,3.37-2.58,5.64-1.97c2.15,0.58,3.53,2.05,3.98,4.26
		C104.93,101.51,104.8,102.29,104.8,103.09z M97.91,116.08c1.32,1.1,2.52,2.1,3.79,3.17c2.33-2.94,4.6-5.72,6.79-8.58
		c0.77-1.01,0.44-2.51-0.52-3.27c-0.98-0.78-2.43-0.74-3.28,0.28C102.41,110.41,100.21,113.22,97.91,116.08z M94.64,113.55
		c2.18-2.71,4.34-5.33,6.4-8.01c0.74-0.96,0.35-2.44-0.62-3.15c-0.97-0.71-2.56-0.62-3.3,0.29c-2.1,2.57-4.15,5.19-6.27,7.84
		C92.12,111.54,93.34,112.52,94.64,113.55z"/>
</g>
<g>
	<g>
		<path class="st2" d="M125.22,210.52c-2.45-0.99-4.96-1.85-7.46-2.73c-0.66-0.23-1.07,0-1.33,0.76c-1.55,4.52-3.15,9.03-4.78,13.52
			c-0.31,0.87-0.23,1.33,0.7,1.64c2.56,0.84,5.1,1.72,7.63,2.63c1.9,0.68,3.94,0.2,5.24-1.33c1.42-1.67,1.57-3.44,0.47-5.34
			c-0.17-0.29-0.34-0.57-0.42-0.71c1.07-1.12,2.25-1.99,2.89-4.47C127.81,212.73,126.69,211.12,125.22,210.52z M120.21,223.29
			c-1.22-0.36-2.42-0.8-3.63-1.21c-0.04-0.01-0.08-0.03-0.12-0.05c-1.48-1.19,0.1-2.23,0.2-3.34c0.07-0.75,0.74-0.94,1.49-0.63
			c0.94,0.39,1.94,0.68,2.86,1.11c0.89,0.42,1.74,0.95,1.75,2.12C122.75,222.59,121.44,223.65,120.21,223.29z M124.39,214.96
			c-0.1,0.62-1.07,1.11-1.58,1.57c-1.6-0.54-2.9-0.96-4.17-1.45c-0.18-0.07-0.36-0.53-0.31-0.76c0.18-0.79,0.32-1.64,0.74-2.3
			c0.61-0.96,1.36,0.03,2.03,0.14c0.74,0.12,1.58,0.34,2.13,0.81C123.8,213.47,124.48,214.36,124.39,214.96z"/>
		<path class="st2" d="M140.11,212.72c-2.77-0.18-5.54-0.51-8.3-0.86c-2.38-0.3-2.37-0.35-3.28,1.79c-0.03,0.07-0.08,0.63-0.35,0.84
			c0.02,0.35,0.27,2.02,0.23,2.42c-0.33,3.24-0.68,6.47-1.04,9.7c-0.1,0.88-0.12,1.73,1.01,1.84c3.53,0.36,7.07,0.7,10.61,0.99
			c1.03,0.08,1.05-0.8,1.16-1.52c0.11-0.69,0.11-1.27-0.84-1.35c-1.75-0.15-3.49-0.42-5.24-0.55c-3.19-0.23-3.21-0.27-2.67-3.44
			c0.15-0.89,0.55-1.16,1.38-1.07c1.83,0.21,3.66,0.37,5.49,0.61c1.09,0.14,1.57-0.22,1.62-1.35c0.05-1.06-0.08-1.8-1.38-1.71
			c-0.38,0.03-0.77-0.01-1.15-0.06c-1.85-0.23-3.69-0.47-5.6-0.72c0.14-0.91,0.14-1.67,0.4-2.33c0.15-0.39,0.72-0.89,1.08-0.87
			c2.18,0.13,4.36,0.33,6.51,0.64c1.01,0.15,1.36-0.19,1.37-1.11C141.11,213.83,141.72,212.83,140.11,212.72z"/>
	</g>
	<path class="st2" d="M225.04,152.02c0.3,44.6-37.43,84.56-86.36,83.04c-42.46-1.31-81.58-37.42-80.41-86.1
		c1.03-42.69,37.12-82.54,86.4-81.06C187.47,69.18,225.6,105.28,225.04,152.02z M141.67,231.82c44.16,0.24,78.83-35.86,80.21-77.18
		c1.6-47.68-36.55-82.33-77.22-83.58c-47.28-1.45-82.2,36.7-83.23,78.13C60.29,195.27,97.95,232.25,141.67,231.82z"/>
	<path class="st2" d="M200.33,151.44c0.18,32.03-26.29,59.58-60.12,58.8c-31.1-0.72-56.89-26.25-57.18-58.29
		c-0.3-32.69,26.48-59.78,59.69-59.26C173.95,93.17,200.37,118.9,200.33,151.44z M148.1,149.17c1.21-0.69,2.13-1.11,2.94-1.7
		c0.82-0.6,1.42-0.48,2.16,0.14c7.46,6.23,14.93,12.44,22.4,18.66c4.54,3.78,9.09,7.55,13.61,11.35c0.86,0.73,1.27,0.62,1.81-0.4
		c3.26-6.07,5.28-12.56,5.99-19.36c0.64-6.14,0.43-12.3-0.97-18.39c-1.34-5.81-3.45-11.27-6.5-16.37
		c-5.89-9.87-14.05-17.24-24.42-22.2c-4.19-2-8.59-3.39-13.13-4.26c-2.43-0.46-4.93-0.61-7.4-0.86c-0.94-0.1-1.48,0.2-1.22,1.33
		c0.25,1.08,0.36,2.2,0.54,3.29c0.73,4.3,1.47,8.61,2.2,12.91c0.47,2.78,0.91,5.57,1.39,8.36c0.57,3.33,1.17,6.65,1.75,9.97
		c0.73,4.17,1.48,8.35,2.13,12.53c0.07,0.44-0.31,1.17-0.7,1.41c-2.39,1.5-4.84,2.9-7.27,4.32c-1.05,0.61-1.35,0.45-1.4-0.77
		c-0.09-2.4-0.21-4.79-0.22-7.19c-0.09-14.79-0.15-29.58-0.23-44.38c0-0.31-0.06-0.62-0.09-0.94c-0.13-0.01-0.26-0.01-0.39-0.02
		c-1.73,16.91-3.47,33.81-5.23,51.03c-1.14-0.65-2.02-1.21-2.96-1.66c-0.8-0.38-1.01-0.93-0.86-1.76c0.29-1.69,0.54-3.38,0.8-5.08
		c0.7-4.53,1.37-9.06,2.09-13.58c0.75-4.73,1.57-9.46,2.33-14.19c0.74-4.65,1.43-9.3,2.17-13.95c0.25-1.59,0.22-1.67-1.43-1.58
		c-5.12,0.27-10.06,1.38-14.88,3.1c-9.06,3.24-16.72,8.51-23.11,15.67c-4.23,4.74-7.49,10.08-9.91,15.93
		c-2.02,4.9-3.36,10-3.79,15.27c-0.39,4.69-0.4,9.39,0.36,14.1c0.97,5.96,2.73,11.63,5.53,16.98c0.71,1.36,0.75,1.37,1.9,0.42
		c7.54-6.27,15.07-12.54,22.59-18.81c4.37-3.65,8.73-7.31,13.12-10.94c0.33-0.28,0.93-0.63,1.21-0.5c1.28,0.58,2.49,1.31,3.96,2.12
		c-13.52,9.88-26.69,19.51-39.86,29.13c0.05,0.1,0.1,0.19,0.15,0.29c0.28-0.1,0.57-0.17,0.83-0.31c7.03-3.98,14.05-7.96,21.07-11.95
		c7.35-4.18,14.7-8.37,22.05-12.55c1.2-0.68,1.54-0.5,1.54,0.84c0.01,2.7-0.02,5.4,0,8.1c0.01,0.83-0.25,1.34-1.09,1.64
		c-2.01,0.73-3.98,1.55-5.98,2.31c-5.19,1.98-10.39,3.93-15.58,5.91c-5.31,2.02-10.61,4.07-15.91,6.11
		c-2.34,0.9-4.68,1.81-7.33,2.83c1.65,1.89,3.06,3.65,4.62,5.27c6.16,6.4,13.07,11.78,21.14,15.6c4.95,2.34,10.12,4,15.55,4.55
		c5.81,0.59,11.62,0.38,17.37-0.95c5.42-1.24,10.55-3.16,15.38-5.87c5.23-2.94,9.86-6.64,13.85-11.11c1.7-1.91,3.24-3.98,4.81-6.01
		c0.46-0.59,0.86-1.32-0.23-1.74c-2.27-0.88-4.55-1.71-6.82-2.58c-5.79-2.21-11.58-4.42-17.36-6.63c-3.63-1.39-7.25-2.78-10.87-4.18
		c-2.99-1.15-5.97-2.33-8.97-3.46c-0.76-0.29-1.02-0.72-1.01-1.53c0.05-2.83,0.01-5.66,0.02-8.49c0-0.36,0.1-0.72,0.18-1.32
		c15.14,8.63,30.07,17.15,45.01,25.67c0.11-0.16,0.21-0.33,0.32-0.49C174.71,168.63,161.59,159.03,148.1,149.17z"/>
	<path class="st2" d="M199.6,188.86c1.04-1.69,2.22-3.31,3.08-5.08c1.39-2.88,2.7-5.82,3.8-8.81c0.81-2.18,0.02-4.23-1.44-5.96
		c-0.29-0.35-1.04-0.27-1.48-0.55c-0.65-0.41-1.45-0.86-1.71-1.49c-0.21-0.5,0.09-1.55,0.52-1.89c0.5-0.39,1.5-0.54,2.1-0.31
		c0.52,0.2,1.06,1.05,1.11,1.65c0.1,1.3,0.82,2.14,1.68,2.91c0.19,0.17,0.77,0.2,0.94,0.04c0.8-0.74,0.61-2.91-0.25-3.62
		c-2.12-1.76-4.11-3.64-5.22-6.25c-0.95-2.24-0.36-4.57-0.38-6.86c-0.02-2.05-0.07-4.1-0.13-6.14c-0.05-1.47,0.53-1.9,1.83-1.26
		c3,1.45,4.77,3.72,4.58,7.19c-0.15,2.78-0.36,5.56-0.55,8.33c-0.09,1.4,0.45,2.44,1.53,2.73c0.16-0.92,0.36-1.83,0.46-2.75
		c0.43-3.96,1.1-7.92,0.39-11.89c-0.42-2.36-1.99-4.03-3.91-5.36c-0.28-0.19-0.82-0.14-1.2-0.04c-1.27,0.32-2.19,0.01-2.57-0.96
		c-0.44-1.14-0.05-2.17,1.03-2.66c0.97-0.44,2.16-0.05,2.59,1.16c0.5,1.43,1.66,1.87,2.84,2.35c0.68,0.28,1.05,0.11,1-0.74
		c-0.14-2.3-0.4-2.55-2.58-3.24c-2.21-0.69-4.48-1.45-6.08-3.17c-1.07-1.14-1.79-2.66-2.47-4.11c-1.23-2.62-2.32-5.31-3.43-7.98
		c-0.18-0.43-0.35-1.03-0.18-1.4c0.11-0.26,0.8-0.39,1.23-0.38c4.7,0.08,6.83,2.78,8.05,6.59c0.76,2.35,1.59,4.69,2.52,6.98
		c0.24,0.58,0.95,0.97,1.45,1.44c0.15-0.08,0.31-0.16,0.46-0.24c-0.19-0.92-0.31-1.86-0.59-2.76c-0.91-2.94-1.88-5.85-2.83-8.78
		c-0.59-1.84-1.9-3.09-3.35-4.27c-3.27-2.69-4.73-6.31-5.13-10.42c-0.11-1.09,0.41-1.53,1.35-1.08c3.04,1.46,6,3.09,7.06,6.61
		c0.4,1.33,0.38,2.78,0.57,4.17c0.18,1.29,0.26,2.61,0.62,3.85c1.12,3.75,2.35,7.48,3.57,11.2c0.12,0.37,0.41,0.68,0.62,1.01
		c0.28-0.28,0.81-0.57,0.8-0.84c-0.05-1.38-0.02-2.82-0.44-4.11c-0.98-3-2.26-5.89-3.29-8.87c-0.78-2.25-0.28-4.48,0.59-6.63
		c0.14-0.36,0.23-0.75,0.44-1.06c0.24-0.36,0.56-0.87,0.88-0.89c0.33-0.03,0.86,0.38,1.02,0.72c1.85,3.94,4.04,7.77,5.35,11.89
		c1.38,4.31,0.25,8.38-3.39,11.49c-1.85,1.58-1.98,2.24-1.07,4.94c1.39-1,2.77-1.85,2.89-3.79c0.07-1.13,1-1.93,2.04-1.9
		c1.01,0.03,1.8,0.77,1.85,1.76c0.07,1.13-0.54,1.96-1.58,2.16c-2.37,0.45-4.66,2.81-4.85,5.24c-0.16,2,0.01,4.03-0.14,6.04
		c-0.25,3.32-0.64,6.63-0.94,9.95c-0.04,0.45,0.13,0.92,0.21,1.38c0.43-0.24,1-0.38,1.25-0.74c0.4-0.58,0.76-1.29,0.82-1.98
		c0.29-3.15,0.74-6.33,0.61-9.47c-0.16-3.88,1.85-6.44,4.4-8.84c0.64-0.6,1.28-0.24,1.38,0.84c0.24,2.6,0.54,5.2,0.55,7.81
		c0.01,2.29-0.13,4.63-0.56,6.87c-0.69,3.57-2.91,6.01-6.3,7.34c-0.75,0.29-1.54,0.48-2.31,0.73c-0.92,0.3-1.58,2.04-1.34,3.54
		c1.6,0.12,3.58-0.99,4.24-2.41c0.51-1.09,1.39-1.42,2.44-1.09c1,0.32,1.48,1.15,1.33,2.22c-0.14,1.06-0.85,1.64-1.87,1.55
		c-4.66-0.42-6.91,2.45-8.68,6.13c-1.9,3.96-3.89,7.87-5.84,11.81c-0.19,0.39-0.36,0.79-0.61,1.35c1.34,0.03,2.12-0.53,2.62-1.4
		c1.65-2.89,3.4-5.75,4.82-8.75c1.24-2.65,2.96-4.55,5.79-5.38c0.45-0.13,0.84-0.44,1.29-0.55c0.39-0.1,0.99-0.2,1.18,0
		c0.25,0.27,0.37,0.89,0.24,1.25c-1.18,3.16-2.4,6.3-3.67,9.42c-0.91,2.25-2.24,4.21-4.18,5.73c-2.13,1.67-4.56,2.3-7.22,2.1
		c-2.92-0.22-3.12-0.14-4.56,2.62c1.52,0.85,3.37,0.72,4.71-0.33c1.09-0.86,2.04-0.86,2.85-0.01c0.73,0.77,0.77,1.95,0.1,2.65
		c-0.84,0.89-1.82,0.84-3,0.1c-0.59-0.37-1.39-0.61-2.09-0.6c-2.91,0.04-5.2,1.2-7.35,3.31c-3.28,3.22-6.98,6.02-10.49,9.01
		c-0.29,0.25-0.5,0.59-0.84,0.99c1.79,0.83,3.03,0.05,4.15-0.88c2.64-2.18,5.26-4.38,7.8-6.67c2.4-2.17,5.32-1.82,8.15-1.87
		c0.93-0.02,1.17,0.76,0.5,1.55c-1.56,1.82-3.12,3.65-4.81,5.34c-1.57,1.57-3.17,3.17-5.01,4.39c-3.55,2.34-7.4,2.66-11.16,0.5
		c-1.59-0.91-2.89-1.04-4.31,0.12c-0.26,0.21-0.59,0.4-0.91,0.44c-0.32,0.04-0.67-0.11-1-0.18c0.11-0.37,0.12-0.87,0.37-1.09
		c0.44-0.39,1.01-0.63,1.56-0.88c1.03-0.48,1.26-1.21,1.26-2.36c-0.02-2.21,0.19-4.42,0.45-6.62c0.22-1.88,1.42-3.21,2.78-4.46
		c2.34-2.12,4.6-4.33,6.86-6.53c0.79-0.77,1.39-0.69,1.85,0.35c1.35,3.05,0.58,6.69-1.98,8.91c-2.07,1.79-4.22,3.49-6.31,5.25
		c-0.83,0.7-1.54,1.49-1.05,2.98c1.08-0.76,2.15-1.38,3.05-2.17c2.98-2.63,5.98-5.26,8.82-8.04c1.75-1.71,1.48-4.01,1.06-6.18
		c-0.08-0.4-0.64-0.77-1.06-1.04c-1.14-0.75-1.48-1.54-1.02-2.54c0.44-0.97,1.52-1.48,2.44-1.16c0.99,0.35,1.53,1.3,1.17,2.53
		c-0.45,1.54-0.13,2.85,0.75,4.1c1.88-0.93,2.26-2.33,1.51-4.08c-0.87-2.03-1.62-4.13-2.17-6.27c-0.53-2.06,0.4-3.91,1.31-5.75
		c1.3-2.63,2.42-5.35,3.66-8.02c0.18-0.38,0.56-0.86,0.9-0.92c0.33-0.05,0.82,0.32,1.09,0.63c1.49,1.76,2.6,3.79,2.11,6.11
		c-0.37,1.75-1.28,3.41-2.06,5.06c-0.97,2.04-2.12,4-3.03,6.06c-0.26,0.6,0.07,1.46,0.13,2.2
		C199.19,188.77,199.4,188.81,199.6,188.86z M217.4,148.11c-0.21-0.02-0.43-0.04-0.64-0.06c-0.19,0.88-0.49,1.75-0.54,2.64
		c-0.15,2.81-0.21,5.63-0.27,8.44c-0.01,0.56,0.1,1.12,0.16,1.69c0.39-0.5,0.79-1,1.17-1.52c0.07-0.09,0.07-0.25,0.08-0.37
		c0.17-2.97,0.36-5.94,0.47-8.91C217.85,149.38,217.55,148.74,217.4,148.11z M209.82,119.31c0,0.88-0.16,1.52,0.03,2.04
		c1.32,3.58,2.7,7.14,4.07,10.71C215.28,130.48,212.64,121.74,209.82,119.31z M212.8,177.49c-1.1,0.21-5.06,6.85-6.6,11.06
		C208.19,188.86,213.23,180.42,212.8,177.49z M197.01,202.93c-0.07-0.13-0.15-0.25-0.22-0.38c-0.77,0.44-1.64,0.77-2.31,1.34
		c-2.44,2.07-4.83,4.21-7.22,6.33c-0.19,0.17-0.29,0.43-0.47,0.69C189,211.37,195.63,206.09,197.01,202.93z M204.89,159.64
		c0.14-0.01,0.29-0.01,0.43-0.02c0.11-0.21,0.31-0.42,0.32-0.63c0.13-2.73,0.27-5.46,0.33-8.19c0.01-0.47-0.23-0.99-0.49-1.41
		c-0.17-0.27-0.58-0.39-0.88-0.58c-0.12,0.29-0.34,0.58-0.34,0.88c-0.03,2.44-0.07,4.88,0.02,7.32
		C204.3,157.89,204.68,158.76,204.89,159.64z M199.04,124.94c-0.14,0.13-0.28,0.27-0.42,0.4c0.69,1.78,1.35,3.58,2.1,5.34
		c0.49,1.17,1.06,2.33,1.7,3.43c0.24,0.41,0.79,0.65,1.2,0.96c0.11-0.11,0.22-0.22,0.34-0.33c-1-2.67-1.93-5.37-3.06-7.98
		C200.57,126.03,199.67,125.54,199.04,124.94z M180.1,202.36c0.16,0.08,0.32,0.17,0.48,0.25c2.26-2.06,4.52-4.12,6.76-6.2
		c0.26-0.24,0.42-0.65,0.5-1c0.06-0.29-0.06-0.62-0.1-0.94c-0.29,0.1-0.62,0.14-0.85,0.32c-0.57,0.45-1.11,0.93-1.62,1.45
		c-1.56,1.56-3.12,3.12-4.62,4.74C180.32,201.31,180.27,201.89,180.1,202.36z M201.65,173.04c-0.19-0.07-0.38-0.14-0.56-0.21
		c-0.26,0.33-0.58,0.64-0.77,1.01c-0.83,1.63-1.68,3.25-2.41,4.93c-0.45,1.04-0.73,2.17-1.01,3.27c-0.06,0.25,0.19,0.57,0.29,0.86
		c0.2-0.17,0.48-0.31,0.6-0.53c1.18-2.21,2.4-4.41,3.45-6.68C201.61,174.91,201.53,173.93,201.65,173.04z M203.19,119.08
		c0.13-0.03,0.25-0.07,0.38-0.1c0-0.39,0.14-0.87-0.02-1.17c-0.73-1.32-1.53-2.61-2.36-3.87c-0.14-0.21-0.56-0.22-0.85-0.33
		c-0.05,0.31-0.18,0.64-0.13,0.94C200.52,116.51,201.71,117.89,203.19,119.08z"/>
	<path class="st2" d="M102.75,209.51c-0.41-0.2-0.89-0.33-1.23-0.62c-3.48-2.91-7.17-5.6-10.31-8.84c-2.13-2.2-4.41-3.19-7.27-3.46
		c-0.99-0.1-1.71,0.18-2.47,0.75c-1.02,0.76-2.28,0.6-2.86-0.25c-0.71-1.03-0.55-2.07,0.41-2.84c0.82-0.66,1.67-0.55,2.32,0.13
		c1.51,1.57,3.21,0.88,4.93,0.71c-0.47-2.19-1.93-3.26-3.86-2.95c-4.13,0.66-8.62-1.34-10.64-5.18c-1.74-3.31-3.05-6.85-4.51-10.3
		c-0.3-0.7-0.51-1.45-0.62-2.2c-0.12-0.79,0.34-1.14,1.1-0.89c3.55,1.16,6.36,3.03,7.85,6.76c1.1,2.75,2.72,5.31,4.27,7.87
		c0.47,0.79,1.45,1.28,2.19,1.9c0.14-0.11,0.28-0.22,0.42-0.32c-0.07-0.34-0.04-0.74-0.21-1.01c-2.77-4.29-4.83-8.93-6.79-13.62
		c-1.04-2.49-3.31-3.72-5.66-4.71c-0.49-0.21-1.17,0.01-1.76,0.06c-1.35,0.12-2.39-0.42-2.35-1.56c0.03-0.74,0.61-1.69,1.23-2.14
		c0.86-0.61,1.99-0.09,2.48,1.1c0.68,1.67,2.25,1.82,3.6,2.37c0.16,0.06,0.65-0.25,0.7-0.46c0.34-1.38-0.59-2.83-1.98-3.22
		c-5.32-1.47-8.48-5.46-8.49-10.98c-0.01-3.6,0.18-7.19,0.3-10.79c0.02-0.46,0.06-0.96,0.24-1.38c0.25-0.56,0.78-0.96,1.3-0.35
		c1.27,1.48,2.53,2.98,3.63,4.59c0.42,0.62,0.48,1.54,0.53,2.33c0.23,3.29,0.33,6.59,0.61,9.87c0.1,1.16,0.51,2.32,0.96,3.41
		c0.15,0.37,0.85,0.53,1.29,0.78c0.08-0.43,0.26-0.87,0.22-1.29c-0.3-3.37-0.7-6.73-0.96-10.1c-0.12-1.62-0.03-3.26,0-4.88
		c0.05-2.69-1.51-4.46-3.44-5.97c-0.38-0.3-1.05-0.26-1.59-0.34c-1.09-0.16-1.52-0.87-1.55-1.87c-0.03-1.03,0.79-1.92,1.8-1.99
		c1.05-0.08,1.94,0.45,1.96,1.43c0.05,2.1,1.67,2.94,2.8,4.23c1.18-1.54,1.24-3.39,0.06-4.28c-5.15-3.85-5.81-9.26-3.44-14.66
		c1.35-3.09,2.89-6.1,4.41-9.1c0.23-0.46,0.86-0.71,1.31-1.06c0.28,0.39,0.6,0.75,0.82,1.18c2.05,3.92,1.19,7.67-0.58,11.43
		c-0.89,1.88-1.53,3.9-2.11,5.9c-0.27,0.92-0.21,1.96-0.13,2.93c0.04,0.46,0.49,0.87,0.76,1.31c0.11-0.04,0.22-0.07,0.33-0.11
		c0.45-1.59,0.84-3.2,1.36-4.76c0.91-2.8,1.93-5.56,2.82-8.37c0.28-0.87,0.44-1.84,0.4-2.75c-0.3-6.41,2.89-8.74,7.32-11.02
		c1.18-0.61,1.65-0.23,1.57,1.11c-0.26,4.08-1.76,7.66-4.99,10.17c-2.38,1.84-3.47,4.3-4.37,6.91c-0.9,2.61-1.53,5.32-2.27,7.99
		c-0.08,0.27-0.07,0.57-0.12,1.01c1.36,0.01,1.88-0.85,2.22-1.81c0.88-2.45,1.74-4.91,2.54-7.39c1.19-3.67,4.12-5.73,7.98-5.55
		c1.01,0.05,1.29,0.66,0.75,1.71c-0.6,1.18-1.31,2.31-1.8,3.53c-0.74,1.82-1.3,3.7-1.98,5.54c-1.15,3.1-3.77,4.51-6.61,5.65
		c-0.59,0.24-1.2,0.46-1.81,0.64c-2.23,0.67-2.74,1.62-2.07,4.09c1.53-0.39,2.79-0.99,3.59-2.54c0.33-0.64,1.35-1.26,2.07-1.28
		c0.89-0.03,1.57,0.76,1.64,1.82c0.07,1.06-0.48,1.7-1.42,2.03c-0.3,0.1-0.72,0.14-0.98,0c-1.05-0.58-1.77-0.06-2.51,0.6
		c-2.24,1.99-3.48,4.42-3.25,7.47c0.26,3.5,0.53,7,0.84,10.49c0.04,0.5,0.31,0.98,0.48,1.47c0.18,0.02,0.36,0.03,0.54,0.05
		c0.25-0.75,0.73-1.5,0.71-2.24c-0.08-2.52-0.33-5.03-0.54-7.55c-0.32-3.72,0.91-6.66,4.32-8.44c0.52-0.27,1.19-0.23,1.8-0.33
		c0.09,0.56,0.26,1.11,0.27,1.67c0.03,2.78-0.2,5.59,0.09,8.34c0.32,2.98-0.57,5.4-2.44,7.55c-0.87,1-1.87,1.89-2.86,2.77
		c-1.45,1.29-1.59,1.82-0.78,3.64c0.1,0.23,0.23,0.44,0.45,0.85c1.05-1.09,2.31-1.82,2.28-3.54c-0.02-1.2,0.8-1.82,2.03-1.77
		c1.19,0.05,1.8,0.68,1.81,1.88c0.01,1.22-0.64,2.02-1.84,1.99c-1.03-0.03-1.51,0.49-2.02,1.26c-1.55,2.32-1.28,4.55-0.25,7.03
		c1.57,3.76,3.18,7.47,5.45,10.87c0.27,0.41,0.78,0.66,1.18,0.98c0.18-0.52,0.63-1.13,0.5-1.56c-0.4-1.28-0.97-2.52-1.58-3.72
		c-0.98-1.94-2.11-3.82-3.06-5.78c-1.32-2.72-0.4-6.68,1.86-8.58c0.64-0.53,1.16-0.58,1.53,0.23c1.3,2.87,2.42,5.83,3.91,8.6
		c1.56,2.9,1.44,5.73,0.41,8.66c-0.38,1.09-0.71,2.24-1.34,3.18c-0.76,1.14-0.68,2.03,0.19,2.98c0.34,0.37,0.63,0.78,0.94,1.16
		c1.07-0.84,1.58-2.55,1.16-3.69c-0.37-1-0.44-1.92,0.5-2.67c0.88-0.69,1.99-0.56,2.74,0.33c0.64,0.76,0.63,2.09-0.2,2.65
		c-1.08,0.73-1.92,1.44-1.97,2.9c-0.06,1.85,0.29,3.56,1.53,4.9c3.32,3.59,7.02,6.76,11.06,9.52c0.29,0.2,0.64,0.32,1.11,0.55
		c0-1.46-0.64-2.37-1.55-3.12c-1.75-1.44-3.5-2.89-5.27-4.31c-1.91-1.53-3.35-3.41-3.48-5.9c-0.07-1.32,0.28-2.71,0.68-3.99
		c0.24-0.77,1.06-1.13,1.68-0.25c2.08,2.95,5.07,4.95,7.67,7.34c1.51,1.39,2.2,3.16,2.35,5.12c0.14,1.83,0.11,3.69,0.05,5.53
		c-0.02,0.82,0.08,1.37,0.93,1.73c0.74,0.31,1.42,0.78,2.07,1.26c0.21,0.16,0.24,0.57,0.36,0.87c-0.33,0.12-0.72,0.41-0.97,0.32
		c-0.75-0.28-1.48-0.67-2.16-1.1c-0.74-0.46-1.4-0.46-2.15,0c-5.3,3.32-10.75,2.07-14.79-2.07c-2.24-2.3-4.46-4.61-6.68-6.92
		c-0.26-0.27-0.5-0.6-0.66-0.94c-0.39-0.84-0.1-1.36,0.84-1.37c3.43-0.04,6.66,0.24,9.27,3.06c1.96,2.12,4.36,3.84,6.63,5.66
		C99.58,210.08,100.83,210.77,102.75,209.51z M67.83,161.05c0-0.52,0.02-0.92,0-1.31c-0.14-2.81-0.29-5.62-0.45-8.42
		c-0.04-0.72-0.03-1.46-0.2-2.16c-0.11-0.45-0.48-0.84-0.85-1.43C64.88,151.63,65.77,159.76,67.83,161.05z M70.33,177.54
		c1.06,2.4,1.99,4.68,3.08,6.88c0.62,1.25,1.44,2.41,2.29,3.53c0.32,0.42,0.95,0.61,1.44,0.9c0.11-0.13,0.22-0.25,0.33-0.38
		c-0.46-0.79-0.95-1.57-1.36-2.38c-1.25-2.47-2.46-4.97-3.73-7.43C72.04,178.01,71.65,177.27,70.33,177.54z M96.69,211.11
		c0.04-0.17,0.08-0.34,0.11-0.51c-0.86-0.68-1.74-1.33-2.56-2.06c-1.83-1.61-3.59-3.28-5.44-4.86c-0.55-0.47-1.29-0.71-2.25-1.21
		c0.14,0.64,0.12,0.85,0.21,0.96c2.49,2.68,4.85,5.53,8.11,7.35C95.38,211.06,96.08,211.01,96.69,211.11z M69.61,132.14
		c0.28-0.49,0.52-0.79,0.65-1.13c1.07-2.83,2.2-5.64,3.15-8.51c0.29-0.88,1.04-1.97-0.1-2.92
		C70.42,123.59,68.46,129.94,69.61,132.14z M86.31,183.18c0.18-0.08,0.35-0.16,0.53-0.24c-0.21-3.78-2.7-6.68-4.01-10.1
		c-1.16,0.57-1.07,1.4-0.72,2.15c1.04,2.23,2.14,4.44,3.25,6.64C85.63,182.18,85.99,182.67,86.31,183.18z M79.93,135.04
		c1.59-0.65,5.24-8.52,4.69-9.93C83,125.74,79.78,132.48,79.93,135.04z M78.06,159.93c1.33-1.4,1.76-9.59,0.8-11.37
		c-1.16,0.8-1.45,1.95-1.39,3.24c0.07,1.41,0.17,2.81,0.27,4.21C77.83,157.23,77.94,158.44,78.06,159.93z M103.38,202.47
		c-0.32-2.01-6.03-7.83-7.88-8.05c0.26,0.73,0.32,1.46,0.71,1.89C98.33,198.66,100.8,200.63,103.38,202.47z M80.14,119.03
		c2.09-0.91,3.91-4.2,3.13-5.66C81.34,114.17,79.6,117.32,80.14,119.03z"/>
	<path class="st2" d="M125.78,85.08c2.14,1.77,3.96,3.25,5.75,4.76c0.26,0.22,0.61,0.74,0.52,0.91c-0.16,0.31-0.61,0.49-0.96,0.68
		c-1.92,1.03-3.32,0.26-4.71-1.16c-1.04-1.06-2.29-1.92-3.54-2.74c-0.49-0.32-1.21-0.45-1.81-0.41c-0.93,0.06-1.48,0.44-1.03,1.62
		c0.56,1.47,0.93,3.02,1.26,4.56c0.07,0.33-0.35,1.09-0.62,1.13c-3.32,0.47-5.61,2.93-8.47,4.27c-1.54,0.72-2.88,1.91-4.46,2.49
		c-1.25,0.46-2.2,1.13-3.14,1.99c-0.22,0.2-1.07,0.08-1.34-0.18c-1.72-1.66-3.35-3.42-5.04-5.12c-0.43-0.43-0.93-0.79-1.61-1
		c1.46,2.59,2.85,5.23,4.41,7.75c0.84,1.35,0.1,2-0.72,2.83c-0.8,0.82-1.45,0.67-2.34,0.08c-2.24-1.49-4.56-2.86-6.86-4.27
		c-0.26-0.16-0.56-0.24-1.03-0.1c0.41,0.46,0.82,0.93,1.25,1.38c1.67,1.72,3.33,3.45,5.02,5.14c0.58,0.59,0.55,1.02-0.01,1.62
		c-1.54,1.63-1.57,1.64-3.15-0.01c-2.84-2.97-5.69-5.93-8.56-8.88c-1.57-1.61-1.58-1.64,0.03-3.16c2.23-2.1,2.23-2.09,4.89-0.47
		c2.04,1.24,4.09,2.46,6.14,3.68c0.09-0.07,0.19-0.14,0.28-0.21c-0.36-0.76-0.7-1.55-1.1-2.29c-1.07-1.95-2.14-3.89-3.27-5.8
		c-0.41-0.69-0.47-1.26,0.14-1.83c0.97-0.89,1.93-1.8,3.02-2.82c3.76,3.85,7.44,7.63,11.13,11.4c0.12-0.09,0.23-0.17,0.35-0.26
		c-0.9-1.58-1.81-3.17-2.71-4.75c-1.49-2.59-2.96-5.2-4.47-7.78c-0.4-0.69-0.2-1.14,0.41-1.49c2.99-1.74,5.98-3.5,9.01-5.18
		c0.29-0.16,0.99,0.06,1.26,0.33c0.43,0.44,0.66,1.07,1.06,1.76c-1.99,1.17-3.87,2.32-5.8,3.4c-1.73,0.97-1.91,2.47-0.32,3.66
		c0.21,0.16,0.74,0.06,1.02-0.09c1.8-0.98,3.61-1.95,5.33-3.06c1.04-0.67,1.31,0,1.76,0.67c0.52,0.78,0.76,1.43-0.27,1.99
		c-1.57,0.86-3.12,1.78-4.69,2.64c-1.42,0.78-1.46,0.86-0.71,2.22c1.29,2.37,1.3,2.37,3.68,1.03c1.38-0.78,2.76-1.55,4.11-2.37
		c1.01-0.62,1.95-1.11,2.53,0.73c0.11-0.13,0.23-0.25,0.34-0.38c-1.39-4.95-2.78-9.89-4.24-15.09c3.37-0.86,6.56-1.81,9.81-2.46
		c1.98-0.39,3.72,0.81,4.42,2.56c0.86,2.14,0.48,4.21-1.06,5.53C126.38,84.76,126.02,84.92,125.78,85.08z M124.62,81.96
		c0.04-1.56-1.32-2.6-2.58-2.29c-0.5,0.12-0.98,0.31-1.48,0.42c-2.78,0.59-2.78,0.59-2.17,3.28c0.01,0.04,0.02,0.08,0.02,0.13
		c0.12,0.78,0.58,1.18,1.35,0.97c1.31-0.37,2.64-0.74,3.88-1.29C124.13,82.95,124.41,82.24,124.62,81.96z"/>
	<path class="st2" d="M146.17,219.46c0.27,2.41,0.54,4.82,0.81,7.22c0.02,0.21,0.13,0.42,0.12,0.63c-0.02,0.57,0.06,1.56-0.15,1.63
		c-0.78,0.27-1.67,0.32-2.5,0.25c-0.24-0.02-0.54-0.72-0.6-1.15c-0.29-1.9-0.52-3.82-0.74-5.73c-0.32-2.81-0.58-5.62-0.91-8.42
		c-0.1-0.86,0.23-1.03,1.01-1.21c1.78-0.41,2.81,0.31,3.82,1.73c1.75,2.46,3.73,4.76,5.61,7.13c0.13-0.03,0.26-0.07,0.39-0.1
		c-0.06-0.98-0.07-1.97-0.18-2.95c-0.2-1.83-0.44-3.65-0.69-5.48c-0.17-1.24,0.48-1.58,1.58-1.56c0.92,0.01,1.67-0.13,1.79,1.29
		c0.4,4.6,0.95,9.19,1.56,13.77c0.15,1.11-0.15,1.35-1.16,1.55c-1.66,0.34-2.7-0.18-3.67-1.56c-1.55-2.2-3.32-4.25-5-6.36
		c-0.23-0.29-0.52-0.55-0.77-0.82C146.39,219.38,146.28,219.42,146.17,219.46z"/>
	<path class="st2" d="M167.19,96.19c-2.22-0.82-4.45-1.63-6.67-2.46c-0.67-0.25-1.37-0.51-1.96-0.9c-0.26-0.17-0.51-0.76-0.41-1.02
		c1.63-4.01,3.36-7.99,4.99-12c1.07-2.63,1.02-2.67,3.7-1.66c1.47,0.56,2.92,1.2,4.37,1.82c2.66,1.13,4,3.19,3.86,6.04
		c-0.16,3.26-1.26,6.19-3.76,8.42c-1.12,1-2.43,1.59-4,1.4C167.27,95.96,167.23,96.07,167.19,96.19z M166.43,81.22
		c-0.98,2.44-1.91,4.73-2.82,7.01c-1.16,2.9-1.15,2.9,1.62,4.13c1.64,0.73,3.19,0.46,4.14-1.08c0.86-1.39,1.54-2.95,1.98-4.52
		c0.58-2.07-0.09-3.27-2.02-4.28C168.48,82.03,167.56,81.7,166.43,81.22z"/>
	<path class="st2" d="M180.11,91.88c1.81,1.34,3.61,2.63,5.35,3.98c0.39,0.3,0.96,0.96,0.86,1.22c-0.26,0.68-0.82,1.27-1.35,1.8
		c-0.1,0.1-0.68-0.18-0.97-0.39c-1.64-1.16-3.28-2.33-4.89-3.53c-0.68-0.51-1.09-0.39-1.57,0.29c-2.11,2.97-2.1,2.28,0.73,4.39
		c1.33,1,2.68,1.98,4.05,2.94c1.28,0.9,0.14,1.52-0.23,2.21c-0.4,0.76-0.95,0.7-1.59,0.23c-2.79-2.06-5.59-4.1-8.39-6.13
		c-0.77-0.56-0.9-1.06-0.28-1.89c2.78-3.74,5.52-7.51,8.22-11.31c0.69-0.97,1.26-0.98,2.16-0.3c2.59,1.97,5.18,3.94,7.87,5.76
		c1.12,0.76,0.57,1.27,0.12,1.95c-0.51,0.76-0.99,1.24-1.95,0.48c-1.54-1.22-3.17-2.34-4.76-3.49c-1.37-0.99-1.55-0.96-2.53,0.44
		C180.69,90.93,180.45,91.33,180.11,91.88z"/>
	<path class="st2" d="M198.83,106.19c-1.79-0.64-2.51-1.79-2.18-3.42c0.27-1.35-1.17-3.45-2.55-3.7c-1.02-0.19-1.77,0.55-1.43,1.66
		c0.37,1.21,1.09,2.3,1.57,3.49c0.44,1.09,0.91,2.21,1.1,3.36c0.61,3.73-3.91,6.76-7.37,4.67c-3-1.82-5.26-4.22-4.64-8.12
		c0.14-0.86,0.78-1.64,1.23-2.43c0.08-0.14,0.36-0.23,0.55-0.23c1.12,0.02,2.29,1.94,1.83,2.99c-0.89,2.07,0.69,4.72,2.95,4.93
		c1.23,0.12,2.08-0.67,1.72-1.89c-0.41-1.41-1.13-2.74-1.8-4.07c-0.77-1.55-1.26-3.16-0.6-4.82c1.13-2.84,4.24-3.71,6.95-1.97
		c1.69,1.09,2.93,2.59,3.69,4.48C200.66,103.08,200.1,104.7,198.83,106.19z"/>
	<path class="st2" d="M158.71,78.93c-2.5-0.43-4.44-0.77-6.38-1.1c-0.76-0.13-1.62-0.59-1.83,0.77c-0.34,2.23-0.27,2.48,1.16,2.69
		c1.73,0.26,3.46,0.58,5.2,0.79c1.18,0.14,1.29,0.79,1.22,1.79c-0.08,1.12-0.61,1.4-1.59,1.24c-1.9-0.32-3.79-0.68-5.7-0.92
		c-0.41-0.05-1.18,0.27-1.27,0.57c-0.27,0.93-0.36,1.94-0.37,2.91c0,0.22,0.55,0.59,0.89,0.66c2.18,0.44,4.36,0.87,6.57,1.17
		c1.14,0.16,1.45,0.6,1.24,1.7c-0.21,1.06-0.54,1.56-1.79,1.31c-3.23-0.65-6.48-1.19-9.73-1.68c-1.13-0.17-1.41-0.58-1.2-1.7
		c0.6-3.24,1.1-6.49,1.63-9.74c0.23-1.39,0.47-2.78,0.67-4.18c0.13-0.92,0.71-1.09,1.48-0.97c2.07,0.33,4.14,0.67,6.21,1.01
		c1.18,0.19,2.37,0.36,3.54,0.59c0.72,0.15,1.48,0.35,1.19,1.41C159.6,78.14,159.49,79.14,158.71,78.93z"/>
	<path class="st2" d="M163.54,211.75c-2.01,0.65-3.88,1.21-5.73,1.85c-0.96,0.33-1.41-0.08-1.58-0.91
		c-0.15-0.75-0.74-1.57,0.68-1.98c2.95-0.85,5.83-1.93,8.76-2.85c0.55-0.17,1.51-0.29,1.75,0c0.71,0.86,0.98,1.91,0.49,3.11
		c-1.4,3.44-2.71,6.91-4.05,10.37c-0.15,0.39-0.21,0.82-0.4,1.59c1.31-0.33,2.42-0.57,3.5-0.9c1.38-0.43,2.75-0.92,4.11-1.43
		c0.91-0.34,1.19,0.26,1.36,0.89c0.19,0.69,0.68,1.59-0.4,1.97c-2.58,0.9-5.19,1.71-7.78,2.57c-1.05,0.35-2.11,0.69-3.15,1.08
		c-0.63,0.24-1.03,0.13-1.34-0.51c-0.61-1.26-0.74-2.46-0.19-3.81c1.38-3.4,2.66-6.83,3.97-10.25
		C163.59,212.37,163.54,212.19,163.54,211.75z"/>
	<path class="st2" d="M137.32,91.13c-3.78,0.17-6.63-3.22-7.03-6.77c-0.23-2.09-0.31-4.16,0.52-6.18c1.06-2.57,3.12-3.85,5.68-4.26
		c2.34-0.38,4.64-0.04,6.39,1.83c0.4,0.43,0.66,0.99,1,1.48c0.44,0.64,0.15,1.02-0.43,1.32c-1.47,0.77-2.21,0.64-3.31-0.58
		c-1.65-1.84-5.07-1.24-6,1.12c-1.01,2.55-0.6,5.07,0.68,7.4c0.69,1.26,1.98,1.82,3.39,1.63c1.38-0.19,2.42-1.01,2.88-2.42
		c0.46-1.39,0.99-1.51,2.83-0.88c1.39,0.48,0.85,1.27,0.53,2.12C143.26,90.1,140.76,91.1,137.32,91.13z"/>
</g>
</svg>
